<?xml version="1.0" encoding="UTF-8" standalone="no"?>
<!-- Created with Inkscape (http://www.inkscape.org/) -->
<svg
   xmlns:dc="http://purl.org/dc/elements/1.1/"
   xmlns:cc="http://creativecommons.org/ns#"
   xmlns:rdf="http://www.w3.org/1999/02/22-rdf-syntax-ns#"
   xmlns:svg="http://www.w3.org/2000/svg"
   xmlns="http://www.w3.org/2000/svg"
   xmlns:sodipodi="http://sodipodi.sourceforge.net/DTD/sodipodi-0.dtd"
   xmlns:inkscape="http://www.inkscape.org/namespaces/inkscape"
   width="210mm"
   height="297mm"
   id="svg2"
   sodipodi:version="0.32"
   inkscape:version="0.46"
   sodipodi:docname="icon.svg"
   inkscape:output_extension="org.inkscape.output.svg.inkscape"
   inkscape:export-filename="C:\fabien\programmation\thunderbird\gatherauthors\resource\icon.png"
   inkscape:export-xdpi="130.48544"
   inkscape:export-ydpi="130.48544">
  <defs
     id="defs4">
    <inkscape:perspective
       sodipodi:type="inkscape:persp3d"
       inkscape:vp_x="0 : 526.18109 : 1"
       inkscape:vp_y="0 : 1000 : 0"
       inkscape:vp_z="744.09448 : 526.18109 : 1"
       inkscape:persp3d-origin="372.04724 : 350.78739 : 1"
       id="perspective10" />
    <filter
       inkscape:collect="always"
       id="filter3253">
      <feGaussianBlur
         inkscape:collect="always"
         stdDeviation="0.31164232"
         id="feGaussianBlur3255" />
    </filter>
    <inkscape:perspective
       id="perspective3525"
       inkscape:persp3d-origin="372.04724 : 350.78739 : 1"
       inkscape:vp_z="744.09448 : 526.18109 : 1"
       inkscape:vp_y="0 : 1000 : 0"
       inkscape:vp_x="0 : 526.18109 : 1"
       sodipodi:type="inkscape:persp3d" />
    <inkscape:perspective
       id="perspective3592"
       inkscape:persp3d-origin="372.04724 : 350.78739 : 1"
       inkscape:vp_z="744.09448 : 526.18109 : 1"
       inkscape:vp_y="0 : 1000 : 0"
       inkscape:vp_x="0 : 526.18109 : 1"
       sodipodi:type="inkscape:persp3d" />
    <filter
       inkscape:collect="always"
       id="filter3650">
      <feGaussianBlur
         inkscape:collect="always"
         stdDeviation="0.087480469"
         id="feGaussianBlur3652" />
    </filter>
    <filter
       inkscape:collect="always"
       id="filter3782"
       x="-0.084368084"
       width="1.1687362"
       y="-0.55198264"
       height="2.1039653">
      <feGaussianBlur
         inkscape:collect="always"
         stdDeviation="0.48257413"
         id="feGaussianBlur3784" />
    </filter>
    <filter
       inkscape:collect="always"
       id="filter4020"
       x="-0.34865099"
       width="1.697302"
       y="-0.30408655"
       height="1.6081731">
      <feGaussianBlur
         inkscape:collect="always"
         stdDeviation="0.74473651"
         id="feGaussianBlur4022" />
    </filter>
    <filter
       inkscape:collect="always"
       id="filter4058">
      <feGaussianBlur
         inkscape:collect="always"
         stdDeviation="0.054992761"
         id="feGaussianBlur4060" />
    </filter>
    <filter
       inkscape:collect="always"
       id="filter4105"
       x="-0.084960881"
       width="1.1699218"
       y="-0.10789319"
       height="1.2157864">
      <feGaussianBlur
         inkscape:collect="always"
         stdDeviation="0.4362862"
         id="feGaussianBlur4107" />
    </filter>
  </defs>
  <sodipodi:namedview
     id="base"
     pagecolor="#ffffff"
     bordercolor="#666666"
     borderopacity="1.0"
     inkscape:pageopacity="0.0"
     inkscape:pageshadow="2"
     inkscape:zoom="8"
     inkscape:cx="-0.90120409"
     inkscape:cy="6.4101686"
     inkscape:document-units="px"
     inkscape:current-layer="layer1"
     showgrid="false"
     inkscape:window-width="1280"
     inkscape:window-height="911"
     inkscape:window-x="-4"
     inkscape:window-y="-4" />
  <metadata
     id="metadata7">
    <rdf:RDF>
      <cc:Work
         rdf:about="">
        <dc:format>image/svg+xml</dc:format>
        <dc:type
           rdf:resource="http://purl.org/dc/dcmitype/StillImage" />
      </cc:Work>
    </rdf:RDF>
  </metadata>
  <g
     inkscape:label="Calque 1"
     inkscape:groupmode="layer"
     id="layer1">
    <g
       id="g4220"
       transform="translate(-0.1875,1)">
      <path
         style="font-size:8px;font-style:normal;font-weight:normal;opacity:0.09090899;fill:#ffff00;fill-opacity:1;stroke:none;stroke-width:1px;stroke-linecap:butt;stroke-linejoin:miter;stroke-opacity:1;font-family:Bitstream Vera Sans"
         d="M 18.6875,1033.5938 C 19.140716,1032.5595 18.186174,1030.1174 20.55625,1031 C 23.287806,1030.5822 18.423292,1031.6132 18.875,1030.345 C 18.107737,1028.0498 20.116098,1028.5303 21.67625,1028.5625 C 22.264822,1028.6591 17.701503,1027.5545 18.6875,1029.5575 C 18.6875,1030.9029 18.6875,1032.2483 18.6875,1033.5938 z M 24.5625,1029.9688 C 23.617664,1030.2526 25.797239,1030.0684 24.65625,1029.9375 L 24.5625,1029.9688 z M 27.8125,1029.9688 C 27.700983,1029.8773 27.261945,1029.9765 27.8125,1029.9688 z M 32.0625,1029.9688 C 33.82261,1030.1741 32.58213,1032.7749 33.1875,1033.5938 C 32.91703,1032.5267 33.963319,1029.7355 32.0625,1029.9688 z M 34.34375,1029.9688 C 36.297283,1029.9124 35.127414,1032.6963 35.625,1033.5938 C 35.341613,1032.4698 36.43825,1029.5819 34.34375,1029.9688 z M 34.34375,1029.9688 C 34.249287,1029.8836 34.265549,1030.1065 34.34375,1029.9688 z M 26.84375,1030.0312 C 25.419156,1030.4716 25.635981,1033.4002 26.9375,1033.5625 C 25.607412,1032.8939 25.76614,1030.5171 27.03125,1030 L 26.84375,1030.0312 z M 27,1033.5938 C 26.857136,1033.6463 27.48408,1033.6963 27,1033.5938 z M 23.4375,1033.5938 C 23.863341,1032.273 23.428553,1031.2442 23.5,1030.0312 C 23.357997,1031.0861 23.476408,1032.4377 23.4375,1033.5938 z M 30.5625,1033.5938 C 30.956861,1032.384 30.593509,1031.1461 30.65625,1030.0325 C 30.443282,1031.0105 30.620958,1032.4607 30.5625,1033.5938 z M 28.21875,1030.0938 C 29.598338,1030.8128 28.962245,1033.2821 28.21875,1033.5625 C 29.546893,1033.1269 29.516024,1030.4603 28.21875,1030.0938 z M 27.3125,1033.6875 C 27.877488,1033.7399 27.020129,1033.5803 27.3125,1033.6875 z M 27.5625,1033.6875 C 27.796172,1033.7488 28.022537,1033.5772 27.5625,1033.6875 z"
         id="path4230" />
      <path
         style="font-size:8px;font-style:normal;font-weight:normal;opacity:0.09090899;fill:#ffff00;fill-opacity:1;stroke:none;stroke-width:1px;stroke-linecap:butt;stroke-linejoin:miter;stroke-opacity:1;font-family:Bitstream Vera Sans"
         d="M 18.28125,1028.1562 C 18.28125,1030.1042 18.28125,1032.0521 18.28125,1034 C 19.508047,1034.3851 19.31478,1033.3502 19.28125,1032.475 C 18.89731,1031.2215 19.887347,1031.3419 20.82125,1031.4062 C 21.746852,1031.9177 22.568778,1030.6346 21.56375,1030.5 C 20.888573,1030.321 19.491173,1030.8642 19.28125,1030.22 C 18.980791,1029.0358 19.601225,1028.7725 20.68125,1028.9688 C 21.427699,1028.8694 22.791879,1029.3877 22.40625,1028.1562 C 21.821999,1027.8638 20.694092,1028.1151 19.90125,1028.0312 C 19.422986,1028.1189 18.541759,1027.8582 18.28125,1028.1562 z M 24.4375,1029.5625 C 23.880992,1030.2277 23.661027,1029.2529 23.03125,1029.75 C 23.03125,1031.1667 23.03125,1032.5833 23.03125,1034 C 24.25136,1034.3889 24.016913,1033.3232 24,1032.475 C 24.025437,1031.8216 23.790253,1030.4699 24.78125,1030.5 C 25.366876,1031.2165 25.901282,1029.5829 25.120013,1029.6043 C 24.913764,1029.5033 24.659754,1029.5028 24.4375,1029.5625 z M 27.15625,1029.5625 C 25.253277,1029.6993 24.958969,1032.551 26.15625,1033.6562 C 27.33171,1034.6596 29.658319,1033.9186 29.5566,1032.1899 C 29.899361,1030.6765 28.731892,1029.2504 27.15625,1029.5625 z M 31.75,1029.5938 C 30.963545,1030.0448 31.202498,1029.6055 30.3775,1029.625 C 29.87187,1029.9815 30.295797,1031.2675 30.15625,1031.99 C 30.361473,1032.6364 29.654314,1034.1953 30.70125,1034 C 31.58801,1034.0505 30.91562,1032.5419 31.125,1031.915 C 30.995769,1031.207 31.404727,1030.1104 32.28125,1030.4375 C 32.971234,1030.9911 32.472768,1032.0911 32.625,1032.8675 C 32.163266,1033.7738 33.248053,1034.5084 33.59375,1033.735 C 33.716986,1032.7294 33.32431,1031.5607 33.84375,1030.6562 C 34.336138,1030.0723 35.353447,1030.4858 35.09375,1031.2812 C 35.09375,1032.1875 35.09375,1033.0937 35.09375,1034 C 36.362606,1034.4014 35.999512,1033.1708 36.03125,1032.335 C 35.976982,1031.4017 36.346939,1029.8372 35.082084,1029.5946 C 34.461481,1029.4152 33.736232,1029.5952 33.375,1030.125 C 33.133561,1029.557 32.321069,1029.4152 31.75,1029.5938 z M 27.53125,1030.3438 C 28.875646,1030.4143 28.979781,1032.6053 27.96875,1033.1875 C 26.190216,1033.9333 25.828284,1030.3969 27.53125,1030.3438 z"
         id="path4242" />
      <path
         style="font-size:8px;font-style:normal;font-weight:normal;opacity:0.09090899;fill:#ffff00;fill-opacity:1;stroke:none;stroke-width:1px;stroke-linecap:butt;stroke-linejoin:miter;stroke-opacity:1;font-family:Bitstream Vera Sans"
         d="M 18.125,1028.1562 C 18.125,1030.1562 18.125,1032.1562 18.125,1034.1562 C 20.365389,1035.0012 18.867309,1032.1077 19.7175,1031.5625 C 20.857523,1031.8341 23.112714,1031.5707 21.84375,1030.3438 C 19.915587,1031.2437 18.09461,1028.8158 20.8375,1029.125 C 22.340568,1030.0835 23.526023,1027.6713 21.72125,1027.875 C 20.765653,1028.0949 18.548099,1027.4562 18.125,1028.1562 z M 24.40625,1029.4062 C 23.686894,1029.6428 22.366719,1029.0616 22.875,1030.59 C 23.275295,1031.7118 21.914519,1034.5946 23.875,1034.1562 C 24.614051,1033.7057 23.861982,1031.9293 24.25,1031 C 24.472669,1030.0879 25.626362,1031.5011 25.557294,1030.3594 C 26.123613,1029.5478 24.996716,1029.3048 24.40625,1029.4062 z M 27.125,1029.4062 C 24.325663,1029.7035 24.902988,1034.9056 27.875,1034.25 C 30.781455,1033.8501 30.192773,1028.7733 27.125,1029.4062 z M 31.75,1029.4375 C 31.006401,1029.7016 29.498704,1028.9278 30,1030.59 C 30.400295,1031.7118 29.039519,1034.5946 31,1034.1562 C 31.774369,1033.6504 30.908907,1031.7826 31.4375,1030.8125 C 32.027443,1030.0545 32.861307,1030.9694 32.46875,1031.7475 C 32.176583,1032.9355 32.483257,1035.1528 33.75,1033.875 C 34.007207,1032.9142 33.071575,1030.5563 34.625,1030.5625 C 35.409337,1031.387 34.697131,1033.0428 34.9375,1034.1562 C 37.019187,1034.7942 35.93206,1032.2633 36.1875,1031.075 C 36.492422,1029.4889 34.270274,1028.8297 33.375,1029.875 C 33.030682,1029.4029 32.325282,1029.2428 31.75,1029.4375 z M 27.53125,1030.5 C 29.135196,1030.5658 28.559961,1033.9549 26.96875,1032.9375 C 26.395083,1032.344 26.394654,1030.4877 27.53125,1030.5 z"
         id="path4246" />
      <path
         style="font-size:8px;font-style:normal;font-weight:normal;opacity:0.09090899;fill:#ffff00;fill-opacity:1;stroke:none;stroke-width:1px;stroke-linecap:butt;stroke-linejoin:miter;stroke-opacity:1;font-family:Bitstream Vera Sans"
         d="M 18,1028.1562 C 18.613485,1030.1053 16.52522,1034.756 19.5625,1034.2812 C 17.634015,1030.5126 23.760338,1032.6255 21.84375,1030.2188 C 16.893654,1029.8698 22.037899,1029.5668 22.6875,1028.4237 C 22.957794,1027.2862 18.197502,1027.5443 18,1028.1562 z M 24.375,1029.2812 C 21.615898,1028.7053 23.129341,1032.1573 22.75,1033.875 C 24.485434,1035.583 24.296864,1032.4726 24.375,1031 C 25.742881,1030.2376 24.805776,1032.8443 25.625,1033.5 C 26.829192,1035.2949 30.335985,1034.1922 29.875,1031.7812 C 29.02794,1035.3078 32.430489,1034.6626 31.40625,1031.4688 C 31.257654,1030.42 32.848737,1030.4436 32.34375,1031.6075 C 31.380678,1035.1335 34.902411,1034.8698 33.875,1031.4688 C 33.689375,1030.3792 35.411455,1030.4294 34.8125,1031.7013 C 34.02235,1035.6391 37.426216,1034.3099 36.3125,1031.0312 C 36.631355,1029.2313 34.257802,1028.9208 33.3125,1029.5938 C 32.254527,1028.8001 31.01578,1029.6764 29.875,1029.3438 C 29.781692,1031.1543 30.175599,1031.7355 29.375,1030.125 C 28.803629,1028.8647 26.507963,1029.2944 25.90625,1029.6562 C 25.410432,1029.4139 24.937843,1029.1317 24.375,1029.2812 z M 27.53125,1030.625 C 29.141278,1030.7722 28.101324,1034.1138 26.875,1032.5938 C 26.608738,1031.927 26.617477,1030.697 27.53125,1030.625 z"
         id="path4250" />
      <path
         style="font-size:8px;font-style:normal;font-weight:normal;opacity:0.09090899;fill:#ffff00;fill-opacity:1;stroke:none;stroke-width:1px;stroke-linecap:butt;stroke-linejoin:miter;stroke-opacity:1;font-family:Bitstream Vera Sans"
         d="M 17.84375,1028.1562 C 18.529857,1030.1889 16.134599,1035.3029 19.71875,1034.4375 C 17.836231,1030.822 24.512601,1032.57 21.84625,1030.0625 C 16.38207,1029.7981 25.180752,1027.8934 22.59375,1032.55 C 22.006017,1036.1609 25.887196,1034.0853 24.46875,1031.3125 C 25.160062,1030.1414 24.985582,1032.4804 25.21875,1033 C 25.78384,1034.8951 28.81409,1035.071 29.71875,1033.3125 C 29.946772,1036.1706 32.815212,1033.4724 31.59375,1031.3438 C 32.422616,1029.5941 32.28019,1033.2641 32.1875,1033.875 C 33.69299,1035.9973 34.559915,1032.7934 34.09375,1031 C 35.80947,1030.1145 33.520099,1034.8378 35.21875,1034.4375 C 37.475983,1034.934 36.386877,1031.4748 36.28125,1030 C 35.629531,1028.4923 33.895047,1029.5205 33.03125,1029.25 C 31.84823,1029.1016 29.196938,1028.6575 29.6875,1030.25 C 28.856861,1028.6557 26.855057,1029.2275 25.65625,1029.375 C 24.434448,1028.6409 22.096738,1030.0935 22.84375,1027.5938 C 21.524725,1027.9912 18.099897,1026.7734 17.84375,1028.1562 z M 27.53125,1030.7812 C 29.175695,1031.0344 27.498172,1034.1725 26.90625,1032.1562 C 26.854161,1031.6393 26.836561,1030.7988 27.53125,1030.7812 z"
         id="path4254" />
      <path
         style="font-size:8px;font-style:normal;font-weight:normal;opacity:0.09090899;fill:#ffff00;fill-opacity:1;stroke:none;stroke-width:1px;stroke-linecap:butt;stroke-linejoin:miter;stroke-opacity:1;font-family:Bitstream Vera Sans"
         d="M 17.71875,1028.1562 C 16.636596,1032.6533 19.06891,1037.294 20.54375,1031.9688 C 22.843847,1032.3949 24.598762,1037.5171 24.59375,1031.2812 C 25.172689,1031.1412 24.71731,1034.1689 26.28125,1034.4062 C 27.374657,1035.1205 29.100875,1034.3082 29.59375,1033.875 C 31.438708,1036.3126 31.801898,1032.8519 31.84375,1031 C 32.587022,1032.0242 31.080193,1035.7556 34.15625,1034.5625 C 33.870181,1034.0021 34.298096,1029.0459 34.53125,1031.9813 C 34.132472,1036.9343 37.912683,1033.6382 36.53125,1030.2812 C 35.700358,1028.1049 33.264392,1029.4927 31.65625,1029.0312 C 29.498268,1028.5235 30.07676,1030.5324 28.5625,1029.1562 C 26.971153,1028.7909 25.70869,1029.4066 24.1875,1029.0312 C 22.676076,1028.5144 20.190619,1025.7606 17.71875,1028.1562 z M 22.28125,1029.5312 C 22.440259,1030.8959 17.106285,1029.1031 22.28125,1029.5312 z M 27.59375,1030.9375 C 29.315542,1032.5368 26.005639,1033.3043 27.25,1031 C 27.37937,1031.0407 27.486079,1030.8487 27.59375,1030.9375 z"
         id="path4258" />
    </g>
    <rect
       ry="5"
       rx="5"
       y="1026.6479"
       x="16.428572"
       height="20.714285"
       width="21.071428"
       id="rect3155"
       style="opacity:1;fill:#ffffff;fill-opacity:1;fill-rule:nonzero;stroke:#000000;stroke-width:1;stroke-linecap:square;stroke-linejoin:bevel;stroke-miterlimit:4;stroke-dasharray:none;stroke-opacity:1;filter:url(#filter3253)" />
    <rect
       style="opacity:1;fill:#ffffff;fill-opacity:1;fill-rule:nonzero;stroke:none;stroke-width:1;stroke-linecap:square;stroke-linejoin:bevel;stroke-miterlimit:4;stroke-dasharray:none;stroke-opacity:1"
       id="rect2383"
       width="21.071428"
       height="20.714285"
       x="16.428572"
       y="1026.6479"
       rx="5"
       ry="5" />
    <path
       sodipodi:type="arc"
       style="opacity:0.54151623;fill:#000080;fill-opacity:1;fill-rule:nonzero;stroke:none;stroke-width:1;stroke-linecap:square;stroke-linejoin:bevel;stroke-miterlimit:4;stroke-dasharray:none;stroke-opacity:1;filter:url(#filter3782)"
       id="path3261"
       sodipodi:cx="27.19866"
       sodipodi:cy="1028.4559"
       sodipodi:rx="6.8638391"
       sodipodi:ry="1.0491072"
       d="M 34.062499,1028.4559 A 6.8638391,1.0491072 0 1 1 20.334821,1028.4559 A 6.8638391,1.0491072 0 1 1 34.062499,1028.4559 z"
       transform="matrix(1,0,0,0.4583863,-3.91312e-2,564.14744)" />
    <path
       style="opacity:1;fill:#cccccc;fill-opacity:1;fill-rule:nonzero;stroke:none;stroke-width:1;stroke-linecap:square;stroke-linejoin:bevel;stroke-miterlimit:4;stroke-opacity:1"
       d="M 16.765625,1044.2344 C 17.461073,1046.2546 19.284155,1047.703 21.453125,1047.7031 L 32.515625,1047.7031 C 34.669141,1047.7031 36.46526,1046.2687 37.171875,1044.2709 L 36.953125,1044.2709 C 36.132554,1045.9782 34.475615,1047.1554 32.515625,1047.1554 L 21.453125,1047.1554 C 19.476091,1047.1555 17.79679,1045.9661 16.984375,1044.2344 C 16.908682,1044.2322 16.84024,1044.2377 16.765625,1044.2344 z"
       id="rect3391" />
    <path
       id="path3438"
       d="M 16.4375,1031.9848 L 16.4375,1031.4864 C 16.4375,1028.6556 18.6675,1026.3599 21.4375,1026.3598 L 32.5,1026.3598 C 35.27,1026.3598 37.5,1028.6556 37.5,1031.4864 L 37.5,1031.9848 C 37.5,1029.154 35.27,1026.8939 32.5,1026.8939 L 21.4375,1026.8939 C 18.6675,1026.8938 16.4375,1029.154 16.4375,1031.9848 z"
       style="opacity:1;fill:#000000;fill-opacity:1;fill-rule:nonzero;stroke:none;stroke-width:1;stroke-linecap:square;stroke-linejoin:bevel;stroke-miterlimit:4;stroke-opacity:1" />
    <path
       style="fill:#000000;fill-opacity:1;fill-rule:nonzero;stroke:none;stroke-width:1;stroke-linecap:square;stroke-linejoin:bevel;stroke-miterlimit:4;stroke-opacity:1;filter:url(#filter4105)"
       d="M 816.70385,816.91833 L 827.01012,816.91833 C 828.09837,816.91833 828.97447,817.58953 828.97447,818.42326 L 828.97447,818.54635 C 828.97447,819.38008 828.09837,820.05128 827.01012,820.05128 L 816.70385,820.05128 C 815.6156,820.05128 814.7395,819.38008 814.7395,818.54635 L 814.7395,818.42326 C 814.7395,817.58953 815.6156,816.91833 816.70385,816.91833 z"
       id="rect4064"
       transform="matrix(0.7898204,0.6133382,-0.756304,0.6542204,0,0)" />
    <g
       id="g4262"
       transform="translate(-0.1875,1)">
      <path
         style="font-size:8px;font-style:normal;font-weight:normal;opacity:0.09090899;fill:#ffff00;fill-opacity:1;stroke:none;stroke-width:1px;stroke-linecap:butt;stroke-linejoin:miter;stroke-opacity:1;font-family:Bitstream Vera Sans"
         d="M 18.59375,1033.6875 C 19.712796,1033.6211 18.114478,1030.8374 19.55625,1031.0938 C 20.737799,1031.3042 22.753455,1030.7803 20.45625,1030.8125 C 18.704955,1031.3492 18.884385,1029.9552 18.96875,1028.6562 C 19.758125,1028.5176 22.273736,1028.9768 21.89375,1028.3438 C 20.909495,1028.5928 18.916332,1027.833 18.59375,1028.7437 C 18.59375,1030.3917 18.59375,1032.0396 18.59375,1033.6875 z M 24.53125,1029.875 C 24.09307,1030.1019 23.811043,1030.5721 24.5,1030.1875 C 25.237256,1030.3881 25.438886,1029.7176 24.53125,1029.875 z M 27.1875,1029.875 C 24.991602,1030.1938 25.458007,1034.2986 27.8125,1033.7812 C 29.924916,1033.5006 29.725728,1029.7307 27.53125,1029.8438 L 27.332071,1029.8619 L 27.1875,1029.875 z M 31.84375,1029.9062 C 31.076161,1030.2047 30.978778,1030.4954 31.84375,1030.0625 C 33.382954,1029.8978 32.858663,1031.8539 32.9375,1032.7875 C 33.040659,1034.8974 33.482551,1032.3376 33.28125,1031.4688 C 33.387143,1030.2798 33.719596,1030.7611 33.125,1030.3125 C 32.932037,1029.9547 32.322557,1029.6825 31.84375,1029.9062 z M 33.59375,1030.4062 C 34.250849,1029.6872 35.724804,1030.1543 35.40625,1031.2812 C 35.289636,1032.0164 35.486747,1034.9472 35.71875,1032.8875 C 35.601169,1031.8594 36.228748,1029.8415 34.59375,1029.8438 C 34.175122,1029.8199 33.784742,1030.0716 33.59375,1030.4062 z M 23.34375,1033.6875 C 24.142858,1033.383 23.408669,1031.7034 23.78125,1030.8438 C 23.584897,1031.0029 23.331164,1028.8893 23.34375,1031.1375 C 23.34375,1031.9875 23.34375,1032.8375 23.34375,1033.6875 z M 30.46875,1033.6875 C 31.2534,1033.4248 30.562495,1031.8314 30.875,1031 C 31.019834,1030.579 30.812744,1030.8938 30.46875,1029.9375 C 30.46875,1031.1875 30.46875,1032.4375 30.46875,1033.6875 z M 31.0625,1030.5 C 31.122319,1030.4992 31.087472,1030.34 31.0625,1030.5 z M 27.53125,1030.0312 C 29.588721,1029.9815 29.377351,1034.0441 27.25,1033.5625 C 25.608048,1033.3158 25.733143,1029.9255 27.53125,1030.0312 z M 23.9375,1030.5625 C 24.167675,1030.4506 23.852246,1030.4209 23.9375,1030.5625 z"
         id="path4274" />
      <path
         style="font-size:8px;font-style:normal;font-weight:normal;opacity:0.09090899;fill:#ffff00;fill-opacity:1;stroke:none;stroke-width:1px;stroke-linecap:butt;stroke-linejoin:miter;stroke-opacity:1;font-family:Bitstream Vera Sans"
         d="M 18.3125,1028.1562 C 18.3125,1030.0938 18.3125,1032.0312 18.3125,1033.9688 C 19.086424,1034.1323 19.439835,1033.8753 19.25,1033.075 C 19.366791,1032.5585 19.006045,1031.5644 19.45,1031.375 C 20.279167,1031.375 21.108333,1031.375 21.9375,1031.375 C 22.165468,1030.5345 21.673795,1030.4137 20.94375,1030.5312 C 20.430203,1030.4135 19.435936,1030.7766 19.25,1030.3312 C 19.37375,1029.8238 18.891441,1028.7102 19.75,1028.9375 C 20.625,1028.9375 21.5,1028.9375 22.375,1028.9375 C 22.593019,1028.0966 22.137609,1027.9291 21.38125,1028.0625 C 20.358333,1028.0625 19.335417,1028.0625 18.3125,1028.0625 L 18.3125,1028.1562 z M 24.4375,1029.5938 C 23.878848,1029.8781 24.004335,1030.0829 23.68125,1029.6562 C 22.796088,1029.3753 23.109955,1030.2933 23.0625,1030.85 C 23.0625,1031.8896 23.0625,1032.9292 23.0625,1033.9688 C 23.838189,1034.1444 24.145463,1033.8517 23.96875,1033.075 C 24.075246,1032.2379 23.685634,1031.1698 24.375,1030.5312 C 24.78843,1030.2157 25.372856,1031.0579 25.376118,1030.2779 C 25.810311,1029.7051 24.983135,1029.5289 24.53125,1029.5625 L 24.4375,1029.5938 z M 27.15625,1029.5938 C 25.734749,1029.6809 25.280579,1031.3312 25.5625,1032.5312 C 25.745439,1033.5418 26.703226,1034.2059 27.73125,1034.0625 C 28.801853,1034.0209 29.591789,1033.0865 29.539555,1032.0253 C 29.783676,1030.7773 28.836226,1029.4944 27.53125,1029.5625 C 27.40625,1029.5729 27.28125,1029.5833 27.15625,1029.5938 z M 31.75,1029.625 C 31.026295,1029.9863 31.211447,1029.843 30.6375,1029.6562 C 29.828421,1029.4618 30.321809,1030.5697 30.1875,1031.05 C 30.1875,1032.0229 30.1875,1032.9958 30.1875,1033.9688 C 30.963189,1034.1444 31.270463,1033.8517 31.09375,1033.075 C 31.187481,1032.2319 30.829135,1031.1472 31.5,1030.5 C 32.01326,1030.0954 32.812538,1030.505 32.65625,1031.1875 C 32.65625,1032.1146 32.65625,1033.0417 32.65625,1033.9688 C 33.431939,1034.1444 33.739213,1033.8517 33.5625,1033.075 C 33.652055,1032.2727 33.347529,1031.3304 33.8125,1030.625 C 34.166568,1030.2329 35.120696,1030.2233 35.125,1030.9375 C 35.125,1031.9479 35.125,1032.9583 35.125,1033.9688 C 35.965935,1034.1868 36.133442,1033.7314 36,1032.975 C 35.932646,1032.0408 36.163013,1030.9743 35.8125,1030.125 C 35.303323,1029.3396 33.879507,1029.3712 33.375,1030.1875 C 33.123183,1029.6037 32.341267,1029.4357 31.75,1029.625 z M 27.75,1030.3438 C 28.823692,1030.6059 28.799593,1032.0641 28.40625,1032.875 C 27.839171,1033.6715 26.463505,1033.2642 26.456614,1032.2735 C 26.263874,1031.3918 26.616449,1030.1251 27.75,1030.3438 z"
         id="path4278" />
      <path
         style="font-size:8px;font-style:normal;font-weight:normal;opacity:0.09090899;fill:#ffff00;fill-opacity:1;stroke:none;stroke-width:1px;stroke-linecap:butt;stroke-linejoin:miter;stroke-opacity:1;font-family:Bitstream Vera Sans"
         d="M 18,1028.1562 C 18.324969,1030.0084 17.380804,1033.1296 18.40625,1034.2812 C 20.719793,1034.451 18.532468,1030.12 22.24375,1031.6875 C 23.600617,1029.002 18.075849,1031.1075 19.9625,1029.25 C 22.299438,1030.5042 24.189739,1027.2721 21.08125,1027.75 C 20.332701,1028.0551 18.008425,1027.1608 18,1028.1562 z M 24.4375,1029.2812 C 22.082448,1028.6877 22.799131,1030.9193 22.75,1032.55 C 21.96448,1035.474 25.545721,1034.3521 24.28125,1031.875 C 23.768603,1030.7779 25.458878,1030.3034 25.1875,1031.5312 C 24.624264,1033.9791 28.029652,1035.4561 29.4375,1033.4375 C 30.465253,1030.6824 29.181684,1033.5352 30.28125,1034.2812 C 32.79085,1035 30.265464,1031.0702 32.03125,1030.6562 C 32.969045,1031.2267 31.997895,1033.273 32.34375,1034.2812 C 35.008652,1035.1197 33.237995,1031.9974 34.125,1030.7812 C 35.629937,1030.2336 34.441931,1033.1308 34.8125,1033.875 C 36.330992,1035.6398 36.674144,1032.4329 36.3125,1031 C 36.55121,1029.265 34.270288,1028.8958 33.3125,1029.625 C 32.229913,1028.8017 31.049544,1029.6736 29.875,1029.3438 C 29.811523,1030.6921 30.105398,1032.016 29.5,1030.2812 C 28.734949,1029.0732 26.792774,1028.8699 25.8125,1029.9375 C 26.106262,1029.5157 24.770764,1029.1276 24.4375,1029.2812 z M 27.53125,1030.625 C 29.162115,1030.7036 28.162531,1034.17 26.84375,1032.625 C 26.68525,1031.9578 26.527472,1030.6123 27.53125,1030.625 z"
         id="path4286" />
      <path
         style="font-size:8px;font-style:normal;font-weight:normal;opacity:0.09090899;fill:#ffff00;fill-opacity:1;stroke:none;stroke-width:1px;stroke-linecap:butt;stroke-linejoin:miter;stroke-opacity:1;font-family:Bitstream Vera Sans"
         d="M 17.59375,1028.1562 C 15.920558,1031.5106 19.405748,1038.4771 19.96875,1032.275 C 22.288346,1030.8533 24.169455,1038.5191 24.6875,1032.275 C 24.799609,1029.6105 24.561702,1034.4336 26.21875,1034.5 C 27.835209,1035.5572 29.601122,1033.3874 30.28125,1034.6875 C 33.372702,1036.1374 31.149993,1027.1951 31.9375,1033.5875 C 32.551315,1036.6809 35.638577,1033.4972 34.3125,1031.125 C 33.415625,1032.8184 35.367336,1036.7899 36.71875,1033.875 C 37.771095,1031.1706 35.979559,1027.8405 33.1875,1029.0625 C 31.754688,1028.4665 29.477729,1029.3001 29.125,1029.3125 C 27.336534,1028.4596 25.602124,1029.2958 23.78125,1028.9375 C 23.713708,1027.0242 18.417009,1026.2995 17.59375,1028.1562 z M 22.28125,1029.6562 C 20.711059,1030.2208 18.499808,1029.3911 22.28125,1029.6562 z M 27.53125,1031 C 28.891825,1031.7428 26.805282,1033.7826 27.15625,1031.5 C 27.128662,1031.2079 27.291507,1031.0331 27.53125,1031 z"
         id="path4294" />
      <path
         style="font-size:8px;font-style:normal;font-weight:normal;opacity:0.09090899;fill:#ffff00;fill-opacity:1;stroke:none;stroke-width:1px;stroke-linecap:butt;stroke-linejoin:miter;stroke-opacity:1;font-family:Bitstream Vera Sans"
         d="M 17.40625,1028.1562 C 15.343883,1039.5178 21.877386,1029.3606 22.15625,1034.875 C 25.341197,1036.0669 24.099545,1032.078 25.90625,1034.5312 C 28.510364,1035.476 30.151787,1034.0861 32.75,1034.875 C 36.922245,1036.3252 37.976846,1032.4249 36.375,1029.375 C 34.264919,1027.9925 31.781028,1029.1711 29.28125,1028.75 C 28.863779,1028.9571 26.40826,1028.6557 25.40625,1028.7812 C 22.353212,1028.839 22.565163,1025.9776 18.40625,1027.1562 L 17.40625,1027.1562 L 17.40625,1028.1562 z M 27.46875,1031.25 C 28.443811,1032.1422 26.804145,1033.0498 27.40625,1031.2812 L 27.4375,1031.25 L 27.46875,1031.25 z"
         id="path4298" />
    </g>
    <g
       id="g4302"
       transform="translate(-0.1875,1)">
      <path
         style="font-size:8px;font-style:normal;font-weight:normal;opacity:0.09090899;fill:#ffff00;fill-opacity:1;stroke:none;stroke-width:1px;stroke-linecap:butt;stroke-linejoin:miter;stroke-opacity:1;font-family:Bitstream Vera Sans"
         d="M 18.71875,1033.5625 C 18.778691,1032.012 18.540028,1030.1629 20.95625,1030.9688 C 22.263988,1030.6962 17.383717,1031.7997 18.84375,1029.425 C 17.875356,1027.5789 23.044413,1028.9633 21.36875,1028.4688 C 18.8293,1027.8126 18.31221,1029.1789 18.71875,1031.4687 C 18.71875,1032.1667 18.71875,1032.8646 18.71875,1033.5625 z M 32.40625,1029.9688 C 32.213781,1029.8498 33.335134,1030.551 33.0625,1031.1875 C 33.052104,1034.1707 33.136734,1033.3346 33.21875,1030.9062 C 33.128976,1030.4829 32.838824,1029.9328 32.40625,1029.9688 z M 24.46875,1030 C 24.387492,1030.2301 25.583452,1029.9909 24.5625,1029.9688 C 24.537121,1029.9836 24.443138,1029.9358 24.46875,1030 z M 34.875,1030 C 35.419372,1030.0835 35.751148,1031.4229 35.53125,1032.1812 C 35.509458,1035.1169 35.712192,1031.5681 35.53125,1030.4688 C 35.472738,1030.188 35.123003,1029.9769 34.875,1030 z M 26.78125,1030.0938 C 25.516857,1030.6844 25.553807,1033.1359 26.90625,1033.5625 C 25.525906,1033.004 25.956508,1030.3864 26.78125,1030.0938 z M 30.59375,1033.5625 C 30.835237,1032.5832 30.595676,1030.4655 30.59375,1030.3625 C 30.59375,1031.4292 30.59375,1032.4958 30.59375,1033.5625 z M 28.5625,1030.3125 C 28.578368,1030.2191 28.303692,1030.1573 28.5625,1030.3125 z M 28.5625,1030.3125 C 29.517786,1031.0767 28.807509,1033.1599 28.59375,1033.3438 C 29.345897,1032.7179 29.403067,1030.8856 28.5625,1030.3125 z M 23.46875,1031.5 C 23.321284,1035.6811 23.75027,1032.1394 23.46875,1031.5 z M 28.1875,1033.5625 C 28.455391,1033.7084 28.4213,1033.1031 28.1875,1033.5625 z M 27,1033.625 C 27.136802,1033.6314 26.784489,1033.5452 27,1033.625 z"
         id="path4310" />
      <path
         style="font-size:8px;font-style:normal;font-weight:normal;opacity:0.09090899;fill:#ffff00;fill-opacity:1;stroke:none;stroke-width:1px;stroke-linecap:butt;stroke-linejoin:miter;stroke-opacity:1;font-family:Bitstream Vera Sans"
         d="M 18.5625,1033.7188 C 19.48007,1033.6905 18.782174,1032.0468 19,1031.3188 C 19.331468,1030.8336 20.591269,1031.2767 21.25625,1031.125 C 22.538291,1030.7334 20.269339,1030.7349 19.7375,1030.7812 C 18.504335,1031.1665 19.156277,1029.6666 19,1028.975 C 19.161818,1028.2889 20.60837,1028.8875 21.25625,1028.6875 C 22.928428,1028.7443 21.594113,1028.034 20.625,1028.3125 C 19.871381,1028.4964 18.213775,1027.7763 18.5625,1029.0625 C 18.5625,1030.6146 18.5625,1032.1667 18.5625,1033.7188 z M 24.53125,1029.8438 C 24.0243,1029.7673 23.654401,1031.3186 23.625,1030.6375 C 23.613035,1029.0445 23.086978,1030.6397 23.3125,1031.4062 C 23.532548,1032.0925 22.83965,1033.6916 23.71875,1033.7188 C 23.882969,1032.6064 23.301262,1031.0897 24.25,1030.3125 C 24.595899,1030.2195 25.658488,1030.226 24.96875,1029.875 C 24.932853,1029.7713 24.620598,1029.7965 24.53125,1029.8438 z M 27.1875,1029.8438 C 25.415968,1030.0127 25.277974,1032.8477 26.625,1033.6562 C 27.621258,1034.0948 29.280035,1033.636 29.264926,1032.2882 C 29.583333,1030.8763 28.698903,1029.5798 27.1875,1029.8438 z M 31.84375,1029.875 C 31.169037,1029.6707 30.682575,1031.509 30.78125,1030.3125 C 30.377514,1029.0838 30.397835,1031.3359 30.4375,1031.8562 C 30.336418,1032.4319 30.458297,1034.608 30.84375,1033.2688 C 30.917526,1032.1956 30.459845,1030.3778 31.875,1030.0938 C 33.140077,1029.9698 32.92715,1031.5453 32.90625,1032.3875 C 32.598337,1033.6237 33.521149,1034.2463 33.3125,1032.6688 C 33.253477,1031.694 33.17599,1030.1244 34.46875,1030.0938 C 35.643796,1030.09 35.367856,1031.5205 35.375,1032.3312 C 35.07618,1033.3639 35.864001,1034.4266 35.75,1032.8188 C 35.607169,1031.8988 36.092675,1030.6508 35.34375,1029.9688 C 34.515967,1029.5904 33.732113,1029.914 33.3125,1030.6562 C 33.159749,1029.9502 32.495427,1029.6512 31.84375,1029.875 z M 27.53125,1030.0625 C 29.475122,1030.096 29.353262,1033.7833 27.351158,1033.5439 C 25.669715,1033.3258 25.75179,1030.0594 27.53125,1030.0625 z"
         id="path4314" />
      <path
         style="font-size:8px;font-style:normal;font-weight:normal;opacity:0.09090899;fill:#ffff00;fill-opacity:1;stroke:none;stroke-width:1px;stroke-linecap:butt;stroke-linejoin:miter;stroke-opacity:1;font-family:Bitstream Vera Sans"
         d="M 18.3125,1028.1562 C 18.3125,1030.0938 18.3125,1032.0312 18.3125,1033.9688 C 19.086424,1034.1323 19.439835,1033.8753 19.25,1033.075 C 19.366791,1032.5585 19.006045,1031.5644 19.45,1031.375 C 20.279167,1031.375 21.108333,1031.375 21.9375,1031.375 C 22.165468,1030.5345 21.673795,1030.4137 20.94375,1030.5312 C 20.430203,1030.4135 19.435936,1030.7766 19.25,1030.3312 C 19.37375,1029.8238 18.891441,1028.7102 19.75,1028.9375 C 20.625,1028.9375 21.5,1028.9375 22.375,1028.9375 C 22.593019,1028.0966 22.137609,1027.9291 21.38125,1028.0625 C 20.358333,1028.0625 19.335417,1028.0625 18.3125,1028.0625 L 18.3125,1028.1562 z M 24.4375,1029.5938 C 23.878848,1029.8781 24.004335,1030.0829 23.68125,1029.6562 C 22.796088,1029.3753 23.109955,1030.2933 23.0625,1030.85 C 23.0625,1031.8896 23.0625,1032.9292 23.0625,1033.9688 C 23.838189,1034.1444 24.145463,1033.8517 23.96875,1033.075 C 24.075246,1032.2379 23.685634,1031.1698 24.375,1030.5312 C 24.78843,1030.2157 25.372856,1031.0579 25.376118,1030.2779 C 25.810311,1029.7051 24.983135,1029.5289 24.53125,1029.5625 L 24.4375,1029.5938 z M 27.15625,1029.5938 C 25.734749,1029.6809 25.280579,1031.3312 25.5625,1032.5312 C 25.745439,1033.5418 26.703226,1034.2059 27.73125,1034.0625 C 28.801853,1034.0209 29.591789,1033.0865 29.539555,1032.0253 C 29.783676,1030.7773 28.836226,1029.4944 27.53125,1029.5625 C 27.40625,1029.5729 27.28125,1029.5833 27.15625,1029.5938 z M 31.75,1029.625 C 31.026295,1029.9863 31.211447,1029.843 30.6375,1029.6562 C 29.828421,1029.4618 30.321809,1030.5697 30.1875,1031.05 C 30.1875,1032.0229 30.1875,1032.9958 30.1875,1033.9688 C 30.963189,1034.1444 31.270463,1033.8517 31.09375,1033.075 C 31.187481,1032.2319 30.829135,1031.1472 31.5,1030.5 C 32.01326,1030.0954 32.812538,1030.505 32.65625,1031.1875 C 32.65625,1032.1146 32.65625,1033.0417 32.65625,1033.9688 C 33.431939,1034.1444 33.739213,1033.8517 33.5625,1033.075 C 33.652055,1032.2727 33.347529,1031.3304 33.8125,1030.625 C 34.166568,1030.2329 35.120696,1030.2233 35.125,1030.9375 C 35.125,1031.9479 35.125,1032.9583 35.125,1033.9688 C 35.965935,1034.1868 36.133442,1033.7314 36,1032.975 C 35.932646,1032.0408 36.163013,1030.9743 35.8125,1030.125 C 35.303323,1029.3396 33.879507,1029.3712 33.375,1030.1875 C 33.123183,1029.6037 32.341267,1029.4357 31.75,1029.625 z M 27.75,1030.3438 C 28.823692,1030.6059 28.799593,1032.0641 28.40625,1032.875 C 27.839171,1033.6715 26.463505,1033.2642 26.456614,1032.2735 C 26.263874,1031.3918 26.616449,1030.1251 27.75,1030.3438 z"
         id="path4318" />
      <path
         style="font-size:8px;font-style:normal;font-weight:normal;opacity:0.09090899;fill:#ffff00;fill-opacity:1;stroke:none;stroke-width:1px;stroke-linecap:butt;stroke-linejoin:miter;stroke-opacity:1;font-family:Bitstream Vera Sans"
         d="M 18.25,1028.1562 C 18.25,1030.1146 18.25,1032.0729 18.25,1034.0312 C 19.396336,1034.3713 19.449257,1033.618 19.3125,1032.675 C 18.950069,1031.4001 19.736487,1031.274 20.8125,1031.4375 C 21.68715,1031.7876 22.462022,1031.1151 21.85,1030.4688 C 21.053902,1030.369 19.858558,1030.6685 19.3125,1030.3187 C 18.981983,1029.0486 19.672467,1028.7995 20.8125,1029 C 21.561744,1028.9263 22.849179,1029.3908 22.4375,1028.1562 C 21.980457,1027.7591 20.758507,1028.1269 20.031249,1028 C 19.541406,1028.123 18.456706,1027.7651 18.25,1028.1562 z M 24.4375,1029.5312 C 23.818248,1030.0795 24.05523,1029.4293 23.18125,1029.5938 C 22.724879,1029.9499 23.143772,1031.1813 23,1031.85 C 23.204683,1032.4745 22.587915,1033.9204 23.30625,1034.0312 C 24.528028,1034.4093 23.871645,1032.9091 24.03125,1032.225 C 23.965378,1031.5292 23.990582,1030.2354 25,1030.5938 C 25.639404,1030.9676 25.752988,1029.337 24.954478,1029.538 C 24.823301,1029.4659 24.583528,1029.4811 24.4375,1029.5312 z M 27.15625,1029.5312 C 24.749942,1029.7607 24.895644,1034.0792 27.3125,1034.125 C 28.704902,1034.3001 29.753481,1033.0809 29.625,1031.75 C 29.736216,1030.3839 28.517407,1029.2674 27.15625,1029.5312 z M 31.75,1029.5625 C 31.095428,1029.8597 31.271198,1029.817 30.7875,1029.5938 C 29.624022,1029.2532 30.300754,1030.7528 30.125,1031.4 C 30.125,1032.2771 30.125,1033.1542 30.125,1034.0312 C 31.266181,1034.3766 31.275498,1033.5901 31.15625,1032.675 C 31.205898,1031.91 30.877256,1030.4152 32.03125,1030.4062 C 32.962578,1030.4788 32.467291,1031.7731 32.59375,1032.3875 C 32.659137,1033.1617 32.208156,1034.4523 33.46875,1034.0312 C 33.865874,1033.5742 33.49809,1032.3523 33.625,1031.625 C 33.365068,1030.7632 34.47856,1029.9385 35,1030.7188 C 35.152401,1031.8016 35.016616,1032.9311 35.0625,1034.0312 C 36.198151,1034.3815 36.164069,1033.562 36.0625,1032.675 C 36.001354,1031.5772 36.449873,1029.7459 34.9375,1029.5312 C 34.331309,1029.3774 33.729323,1029.6586 33.375,1030.0938 C 33.071508,1029.5664 32.356259,1029.3539 31.75,1029.5625 z M 27.53125,1030.375 C 28.810919,1030.394 28.745718,1032.1507 28.3125,1032.9062 C 27.683875,1033.6412 26.386919,1033.0863 26.5,1032.1562 C 26.424585,1031.3867 26.537029,1030.3666 27.53125,1030.375 z"
         id="path4322" />
      <path
         style="font-size:8px;font-style:normal;font-weight:normal;opacity:0.09090899;fill:#ffff00;fill-opacity:1;stroke:none;stroke-width:1px;stroke-linecap:butt;stroke-linejoin:miter;stroke-opacity:1;font-family:Bitstream Vera Sans"
         d="M 18.09375,1028.1562 C 18.09375,1030.1667 18.09375,1032.1771 18.09375,1034.1875 C 20.620757,1035.1916 18.532261,1031.5802 20.06875,1031.5938 C 21.649398,1032.5554 23.342394,1030.2454 21.24375,1030.3125 C 18.092944,1030.6868 19.908513,1028.3104 22.16875,1029.1562 C 23.72552,1028.2141 21.459237,1027.3111 20.18125,1027.8438 C 19.755978,1028.06 17.914845,1027.4178 18.09375,1028.1562 z M 24.46875,1029.375 C 23.668979,1029.569 22.311643,1029.0511 22.84375,1030.65 C 23.169817,1031.9469 21.880503,1034.8591 24.175,1034.1875 C 24.417484,1033.1231 23.754362,1031.5281 24.53125,1030.6875 C 25.63051,1031.5469 26.241209,1029.3927 24.9375,1029.3438 C 24.792111,1029.3724 24.590249,1029.2923 24.46875,1029.375 z M 25.46875,1030.6875 C 24.557001,1032.5679 26.33154,1035.0428 28.40625,1034.125 C 30.848845,1033.1848 29.831878,1028.6842 27.09375,1029.4062 C 26.337608,1029.4645 25.720577,1029.9894 25.46875,1030.6875 z M 31.875,1029.375 C 31.183815,1029.8638 29.605739,1028.722 29.96875,1030.35 C 30.400087,1031.5416 28.950985,1034.6136 31,1034.1875 C 31.812878,1033.7804 30.991853,1031.9395 31.40625,1031 C 31.809197,1029.9979 32.959809,1030.9069 32.4375,1031.7875 C 31.717208,1033.1797 33.178646,1035.4538 33.78125,1033.575 C 33.943211,1032.7134 33.209903,1030.2637 34.75,1030.625 C 35.193862,1031.6045 34.747768,1033.0564 34.90625,1034.1875 C 37.059915,1034.8516 35.970483,1032.2726 36.21875,1031.0312 C 36.438207,1029.4823 34.338508,1028.8133 33.375,1029.8438 C 33.064803,1029.4149 32.38594,1029.2651 31.875,1029.375 z M 27.53125,1030.5312 C 29.078542,1030.5834 28.598366,1033.8619 27,1032.9375 C 26.418649,1032.3812 26.391393,1030.5092 27.53125,1030.5312 z"
         id="path4326" />
      <path
         style="font-size:8px;font-style:normal;font-weight:normal;opacity:0.09090899;fill:#ffff00;fill-opacity:1;stroke:none;stroke-width:1px;stroke-linecap:butt;stroke-linejoin:miter;stroke-opacity:1;font-family:Bitstream Vera Sans"
         d="M 17.96875,1028.1562 C 18.24223,1030.0313 16.980065,1035.7976 19.59375,1033.875 C 18.15797,1030.9825 25.572383,1031.2358 20.49375,1030.1875 C 17.066969,1029.2887 26.422619,1028.9124 21.38125,1027.7188 C 20.440991,1027.9875 18.156294,1027.1681 17.96875,1028.1562 z M 24.375,1029.25 C 21.591637,1028.654 23.087135,1032.1288 22.71875,1033.875 C 24.494425,1035.6851 24.311742,1032.4653 24.4375,1030.9688 C 25.725812,1030.4226 24.75266,1032.9718 25.65625,1033.5625 C 26.672503,1035.0661 29.620905,1034.5032 29.84375,1032.5938 C 29.771478,1036.1495 32.326499,1033.4754 31.5,1031.125 C 32.153524,1029.8801 32.798095,1031.7474 32.3125,1032.5375 C 32.227044,1036.1889 34.802923,1033.4596 33.96875,1031.0625 C 35.341859,1029.6853 34.654675,1033.176 34.78125,1033.875 C 36.642216,1035.7477 36.551823,1031.8707 36.25,1030.2812 C 35.947821,1028.9645 34.064874,1029.0991 33.34375,1029.5625 C 32.265459,1028.7914 31.016918,1029.6068 29.84375,1029.3125 C 29.998862,1031.3809 29.846592,1030.6074 28.9375,1029.5938 C 27.700353,1028.5339 26.136646,1030.084 25.1875,1029.3125 C 24.949004,1029.177 24.618962,1029.1897 24.375,1029.25 z M 27.53125,1030.6562 C 29.086409,1030.8068 28.094146,1034.0425 26.90625,1032.5938 C 26.665905,1031.9558 26.617772,1030.7064 27.53125,1030.6562 z"
         id="path4330" />
      <path
         style="font-size:8px;font-style:normal;font-weight:normal;opacity:0.09090899;fill:#ffff00;fill-opacity:1;stroke:none;stroke-width:1px;stroke-linecap:butt;stroke-linejoin:miter;stroke-opacity:1;font-family:Bitstream Vera Sans"
         d="M 17.8125,1028.1562 C 16.701416,1031.1422 19.151524,1038.0709 19.75,1032.075 C 26.514088,1031.9343 17.276898,1029.004 21.55,1029.4375 C 23.183638,1029.5933 22.690048,1038.3617 24.46875,1032.675 C 23.907404,1031.679 25.081666,1030.0673 25,1031.8125 C 24.601302,1034.4309 28.398871,1035.622 29.6875,1033.4375 C 30.814095,1036.3978 32.018312,1032.9599 31.71875,1031 C 33.291972,1030.441 30.699079,1035.7863 33.46875,1034.4688 C 34.915193,1034.928 33.292198,1030.2305 34.625,1031.0625 C 33.418764,1035.4483 37.768273,1035.3101 36.5,1030.9688 C 36.735843,1028.8578 34.231504,1028.9944 33.09375,1029.25 C 31.952112,1029.0288 29.317924,1028.676 29.65625,1030.1562 C 28.397145,1028.1656 26.117898,1029.7955 24.46875,1029.0625 C 22.166122,1029.1701 22.246172,1026.3735 18.68125,1027.5625 C 18.260811,1027.6296 17.370833,1027.2271 17.8125,1028.1562 z M 27.53125,1030.8125 C 29.130085,1031.1241 27.385571,1034.1334 26.9375,1032.0625 C 26.860762,1031.5916 26.929493,1030.8466 27.53125,1030.8125 z"
         id="path4334" />
      <path
         style="font-size:8px;font-style:normal;font-weight:normal;opacity:0.09090899;fill:#ffff00;fill-opacity:1;stroke:none;stroke-width:1px;stroke-linecap:butt;stroke-linejoin:miter;stroke-opacity:1;font-family:Bitstream Vera Sans"
         d="M 17.65625,1028.1562 C 17.014213,1034.7991 18.496715,1035.2319 21.84375,1032.0312 C 21.999862,1035.2109 25.521041,1035.5195 24.6875,1031.1562 C 24.328737,1033.2195 26.83477,1036.0226 29.1875,1034.2188 C 30.644616,1035.1145 32.46991,1034.2764 31.8125,1031.125 C 31.773402,1031.9276 32.330516,1037.084 34.21875,1033.875 C 33.900275,1032.3724 34.605737,1029.0591 34.46875,1032.7813 C 34.909161,1037.3723 37.952525,1032.6493 36.4375,1029.9375 C 35.292841,1028.1536 33.176535,1029.4331 31.53125,1029 C 29.462829,1028.8802 29.85437,1030.0707 28.0625,1028.9375 C 26.231441,1029.1602 24.64641,1029.0437 23.03125,1028.8438 C 24.258683,1026.5914 17.503699,1026.9715 17.65625,1028.1562 z M 22.28125,1029.5938 C 21.652238,1030.5914 17.74308,1029.2292 22.28125,1029.5938 z M 27.53125,1030.9688 C 28.951462,1031.4468 27.06231,1033.8885 27.0625,1031.75 C 27.122887,1031.4336 27.098323,1030.9677 27.53125,1030.9688 z"
         id="path4338" />
    </g>
    <rect
       transform="matrix(0.7898204,0.6133382,-0.756304,0.6542204,0,0)"
       y="816.91833"
       x="814.7395"
       height="3.1329474"
       width="14.234966"
       id="rect3888"
       style="opacity:1;fill:#000000;fill-opacity:1;fill-rule:nonzero;stroke:none;stroke-width:1;stroke-linecap:square;stroke-linejoin:bevel;stroke-miterlimit:4;stroke-dasharray:none;stroke-opacity:1"
       ry="1.5049291"
       rx="1.9643483" />
    <path
       style="opacity:1;fill:#ffffff;fill-opacity:1;fill-rule:nonzero;stroke:none;stroke-width:1;stroke-linecap:square;stroke-linejoin:bevel;stroke-miterlimit:4;stroke-dasharray:none;stroke-opacity:1"
       d="M 24.033229,1035.9018 C 24.022141,1036.3717 24.28907,1036.9001 24.814479,1037.3081 L 32.970729,1043.6205 C 33.83025,1044.288 35.027673,1044.3847 35.658229,1043.8393 L 35.751979,1043.7455 C 36.058605,1043.4803 36.158429,1043.1295 36.095729,1042.7455 C 36.081091,1043.0323 35.957187,1043.291 35.720729,1043.4955 L 35.626979,1043.5893 C 34.996427,1044.1347 33.798993,1044.0381 32.939479,1043.3705 L 24.783229,1037.0268 C 24.353468,1036.6931 24.107933,1036.2975 24.033229,1035.9018 z"
       id="rect4109" />
    <path
       sodipodi:type="arc"
       style="opacity:1;fill:#ffff00;fill-opacity:1;fill-rule:nonzero;stroke:none;stroke-width:1;stroke-linecap:square;stroke-linejoin:bevel;stroke-miterlimit:4;stroke-dasharray:none;stroke-opacity:1;filter:url(#filter4020)"
       id="path3894"
       sodipodi:cx="24.04163"
       sodipodi:cy="1034.7509"
       sodipodi:rx="2.563262"
       sodipodi:ry="2.9389126"
       d="M 26.604892,1034.7509 A 2.563262,2.9389126 0 1 1 21.478368,1034.7509 A 2.563262,2.9389126 0 1 1 26.604892,1034.7509 z"
       transform="matrix(1.2056651,0,0,0.9323309,-5.2065311,69.821852)" />
    <path
       transform="matrix(0.8306963,0,0,0.6194345,4.7382233,394.44875)"
       d="M 26.604892,1034.7509 A 2.563262,2.9389126 0 1 1 21.478368,1034.7509 A 2.563262,2.9389126 0 1 1 26.604892,1034.7509 z"
       sodipodi:ry="2.9389126"
       sodipodi:rx="2.563262"
       sodipodi:cy="1034.7509"
       sodipodi:cx="24.04163"
       id="path4024"
       style="opacity:0.98194945;fill:#ffff00;fill-opacity:1;fill-rule:nonzero;stroke:none;stroke-width:1;stroke-linecap:square;stroke-linejoin:bevel;stroke-miterlimit:4;stroke-dasharray:none;stroke-opacity:1;filter:url(#filter4058)"
       sodipodi:type="arc" />
    <path
       style="opacity:0.98194945000000000;fill:#ff0000;fill-opacity:1;fill-rule:nonzero;stroke:none;stroke-width:1;stroke-linecap:square;stroke-linejoin:bevel;stroke-miterlimit:4;stroke-opacity:1;"
       d="M 5.21875,1034.6875 C 5.3753166,1035.5607 6.2475746,1036.2187 7.3125,1036.2188 C 8.3766853,1036.2188 9.2175342,1035.5598 9.375,1034.6875 C 9.1763438,1035.5168 8.3409477,1036.125 7.3125,1036.125 C 6.2840516,1036.125 5.4174063,1035.5168 5.21875,1034.6875 z"
       id="path4115"
       transform="matrix(0.8777692,-0.4790838,0.4790838,0.8777692,-477.11444,130.99762)" />
    <g
       id="g4178"
       transform="translate(-0.1875,1)">
      <path
         style="font-size:8px;font-style:normal;font-weight:normal;opacity:0.09090899;fill:#ffff00;fill-opacity:1;stroke:none;stroke-width:1px;stroke-linecap:butt;stroke-linejoin:miter;stroke-opacity:1;font-family:Bitstream Vera Sans"
         d="M 18.71875,1033.5625 C 18.77869,1032.012 18.540028,1030.1629 20.95625,1030.9688 C 22.263987,1030.6962 17.383717,1031.7997 18.84375,1029.425 C 17.875356,1027.5789 23.044413,1028.9633 21.36875,1028.4688 C 18.8293,1027.8126 18.31221,1029.1789 18.71875,1031.4688 C 18.71875,1032.1667 18.71875,1032.8646 18.71875,1033.5625 z M 32.40625,1029.9688 C 32.213781,1029.8498 33.335134,1030.551 33.0625,1031.1875 C 33.052104,1034.1707 33.136734,1033.3346 33.21875,1030.9062 C 33.128976,1030.4829 32.838824,1029.9328 32.40625,1029.9688 z M 24.46875,1030 C 24.387492,1030.2301 25.583452,1029.9909 24.5625,1029.9688 C 24.537121,1029.9836 24.443138,1029.9358 24.46875,1030 z M 34.875,1030 C 35.419372,1030.0835 35.751148,1031.4229 35.53125,1032.1813 C 35.509458,1035.1169 35.712192,1031.5681 35.53125,1030.4688 C 35.472738,1030.188 35.123003,1029.9769 34.875,1030 z M 26.78125,1030.0938 C 25.516857,1030.6844 25.553807,1033.1359 26.90625,1033.5625 C 25.525906,1033.004 25.956508,1030.3864 26.78125,1030.0938 z M 30.59375,1033.5625 C 30.835237,1032.5832 30.595676,1030.4655 30.59375,1030.3625 C 30.59375,1031.4292 30.59375,1032.4958 30.59375,1033.5625 z M 28.5625,1030.3125 C 28.578368,1030.2191 28.303692,1030.1573 28.5625,1030.3125 z M 28.5625,1030.3125 C 29.517786,1031.0767 28.807509,1033.1599 28.59375,1033.3438 C 29.345897,1032.7179 29.403067,1030.8856 28.5625,1030.3125 z M 23.46875,1031.5 C 23.321284,1035.6811 23.750271,1032.1394 23.46875,1031.5 z M 28.1875,1033.5625 C 28.455391,1033.7084 28.4213,1033.1031 28.1875,1033.5625 z M 27,1033.625 C 27.136802,1033.6314 26.784489,1033.5452 27,1033.625 z"
         id="path4184" />
      <path
         style="font-size:8px;font-style:normal;font-weight:normal;opacity:0.09090899;fill:#ffff00;fill-opacity:1;stroke:none;stroke-width:1px;stroke-linecap:butt;stroke-linejoin:miter;stroke-opacity:1;font-family:Bitstream Vera Sans"
         d="M 18.59375,1033.6875 C 19.712796,1033.6211 18.114478,1030.8374 19.55625,1031.0938 C 20.737799,1031.3042 22.753455,1030.7803 20.45625,1030.8125 C 18.704955,1031.3492 18.884385,1029.9552 18.96875,1028.6562 C 19.758125,1028.5176 22.273736,1028.9768 21.89375,1028.3438 C 20.909496,1028.5928 18.916331,1027.833 18.59375,1028.7438 C 18.59375,1030.3917 18.59375,1032.0396 18.59375,1033.6875 z M 24.53125,1029.875 C 24.09307,1030.1019 23.811043,1030.5721 24.5,1030.1875 C 25.237256,1030.3881 25.438886,1029.7176 24.53125,1029.875 z M 27.1875,1029.875 C 24.991602,1030.1938 25.458007,1034.2986 27.8125,1033.7812 C 29.924916,1033.5006 29.725728,1029.7307 27.53125,1029.8438 L 27.332071,1029.8619 L 27.1875,1029.875 z M 31.84375,1029.9062 C 31.076161,1030.2047 30.978778,1030.4954 31.84375,1030.0625 C 33.382954,1029.8978 32.858663,1031.8539 32.9375,1032.7875 C 33.040659,1034.8974 33.482551,1032.3376 33.28125,1031.4688 C 33.387143,1030.2798 33.719596,1030.7611 33.125,1030.3125 C 32.932037,1029.9547 32.322557,1029.6825 31.84375,1029.9062 z M 33.59375,1030.4062 C 34.250849,1029.6872 35.724804,1030.1543 35.40625,1031.2812 C 35.289636,1032.0164 35.486747,1034.9472 35.71875,1032.8875 C 35.601169,1031.8594 36.228748,1029.8415 34.59375,1029.8438 C 34.175122,1029.8199 33.784742,1030.0716 33.59375,1030.4062 z M 23.34375,1033.6875 C 24.142858,1033.383 23.408669,1031.7034 23.78125,1030.8438 C 23.584897,1031.0029 23.331164,1028.8893 23.34375,1031.1375 C 23.34375,1031.9875 23.34375,1032.8375 23.34375,1033.6875 z M 30.46875,1033.6875 C 31.2534,1033.4248 30.562495,1031.8314 30.875,1031 C 31.019834,1030.579 30.812745,1030.8938 30.46875,1029.9375 C 30.46875,1031.1875 30.46875,1032.4375 30.46875,1033.6875 z M 31.0625,1030.5 C 31.122319,1030.4992 31.087472,1030.34 31.0625,1030.5 z M 27.53125,1030.0312 C 29.588721,1029.9815 29.377351,1034.0441 27.25,1033.5625 C 25.608048,1033.3158 25.733143,1029.9255 27.53125,1030.0312 z M 23.9375,1030.5625 C 24.167675,1030.4506 23.852246,1030.4209 23.9375,1030.5625 z"
         id="path4188" />
      <path
         style="font-size:8px;font-style:normal;font-weight:normal;opacity:0.09090899;fill:#ffff00;fill-opacity:1;stroke:none;stroke-width:1px;stroke-linecap:butt;stroke-linejoin:miter;stroke-opacity:1;font-family:Bitstream Vera Sans"
         d="M 18.5,1033.7812 C 19.391023,1034.0514 18.96944,1033.009 19.0625,1032.4812 C 19.140726,1031.9303 18.750257,1030.9107 19.65625,1031.1875 C 20.354167,1031.1875 21.052083,1031.1875 21.75,1031.1875 C 21.960289,1030.3543 20.839252,1030.8524 20.35,1030.7188 C 19.799829,1030.6418 18.785563,1031.029 19.0625,1030.125 C 19.185523,1029.6251 18.706622,1028.5233 19.55625,1028.75 C 20.433333,1028.75 21.310417,1028.75 22.1875,1028.75 C 22.413148,1027.891 21.296658,1028.3742 20.7875,1028.25 C 20.025,1028.25 19.2625,1028.25 18.5,1028.25 C 18.5,1030.0937 18.5,1031.9375 18.5,1033.7812 z M 24.5,1029.7812 C 24.022594,1029.8363 23.859542,1030.6679 23.6875,1030.65 C 24.010989,1029.9557 23.118806,1029.4023 23.25,1030.3438 C 23.25,1031.4896 23.25,1032.6354 23.25,1033.7812 C 24.124086,1034.0449 23.674574,1032.985 23.78125,1032.4812 C 23.815351,1031.7317 23.584183,1030.4796 24.53125,1030.2812 C 24.999171,1030.519 25.601796,1030.0867 25,1029.8125 C 24.860548,1029.719 24.649288,1029.7261 24.5,1029.7812 z M 27.1875,1029.7812 C 26.146885,1029.8579 25.588944,1030.9543 25.6875,1031.9125 C 25.696284,1032.9034 26.231459,1033.8066 27.254308,1033.8634 C 28.115894,1033.9537 29.013851,1033.5543 29.21875,1032.75 C 29.597869,1031.6954 29.361102,1030.1242 28.09375,1029.8438 C 27.805323,1029.7079 27.492753,1029.7489 27.1875,1029.7812 z M 31.8125,1029.8125 C 31.347639,1029.8965 31.040195,1030.2768 30.84375,1030.6875 C 31.169473,1029.9824 30.264554,1029.3777 30.375,1030.3438 C 30.375,1031.4896 30.375,1032.6354 30.375,1033.7812 C 31.249086,1034.0449 30.799574,1032.985 30.90625,1032.4812 C 30.894054,1031.6338 30.770109,1030.2866 31.875,1030.1562 C 32.675454,1030.0083 32.95604,1030.8296 32.84375,1031.4875 C 32.84375,1032.2521 32.84375,1033.0167 32.84375,1033.7812 C 33.717836,1034.0449 33.268324,1032.985 33.375,1032.4812 C 33.391958,1031.6853 33.186716,1030.5046 34.126118,1030.2184 C 34.789276,1029.9398 35.471257,1030.5072 35.3125,1031.2063 C 35.3125,1032.0646 35.3125,1032.9229 35.3125,1033.7812 C 36.171482,1034.0069 35.688325,1032.8904 35.8125,1032.3812 C 35.719228,1031.5616 36.090855,1030.4713 35.34375,1029.9062 C 34.558809,1029.5457 33.706955,1029.8474 33.3125,1030.5625 C 33.156459,1029.9106 32.424724,1029.5741 31.8125,1029.8125 z M 27.78125,1030.1562 C 28.980971,1030.3791 29.0271,1032.0096 28.59375,1032.9375 C 28.178372,1033.6375 26.955719,1033.7052 26.5,1032.9688 C 26.026048,1032.0992 26.066085,1030.4135 27.25,1030.1562 C 27.429146,1030.1317 27.602377,1030.1149 27.78125,1030.1562 z"
         id="path4192" />
      <path
         style="font-size:8px;font-style:normal;font-weight:normal;opacity:0.09090899;fill:#ffff00;fill-opacity:1;stroke:none;stroke-width:1px;stroke-linecap:butt;stroke-linejoin:miter;stroke-opacity:1;font-family:Bitstream Vera Sans"
         d="M 18.3125,1028.1562 C 18.3125,1030.0938 18.3125,1032.0312 18.3125,1033.9688 C 19.086424,1034.1323 19.439835,1033.8753 19.25,1033.075 C 19.366791,1032.5585 19.006045,1031.5644 19.45,1031.375 C 20.279167,1031.375 21.108333,1031.375 21.9375,1031.375 C 22.165468,1030.5345 21.673795,1030.4137 20.94375,1030.5312 C 20.430203,1030.4135 19.435936,1030.7766 19.25,1030.3312 C 19.37375,1029.8238 18.891441,1028.7102 19.75,1028.9375 C 20.625,1028.9375 21.5,1028.9375 22.375,1028.9375 C 22.593019,1028.0966 22.137609,1027.9291 21.38125,1028.0625 C 20.358333,1028.0625 19.335417,1028.0625 18.3125,1028.0625 L 18.3125,1028.1562 z M 24.4375,1029.5938 C 23.878848,1029.8781 24.004335,1030.0829 23.68125,1029.6562 C 22.796088,1029.3753 23.109955,1030.2933 23.0625,1030.85 C 23.0625,1031.8896 23.0625,1032.9292 23.0625,1033.9688 C 23.838189,1034.1444 24.145463,1033.8517 23.96875,1033.075 C 24.075246,1032.2379 23.685634,1031.1698 24.375,1030.5312 C 24.78843,1030.2157 25.372856,1031.0579 25.376118,1030.2779 C 25.810311,1029.7051 24.983135,1029.5289 24.53125,1029.5625 L 24.4375,1029.5938 z M 27.15625,1029.5938 C 25.734749,1029.6809 25.280579,1031.3312 25.5625,1032.5312 C 25.745439,1033.5418 26.703226,1034.2059 27.73125,1034.0625 C 28.801853,1034.0209 29.591789,1033.0865 29.539555,1032.0253 C 29.783676,1030.7773 28.836226,1029.4944 27.53125,1029.5625 C 27.40625,1029.5729 27.28125,1029.5833 27.15625,1029.5938 z M 31.75,1029.625 C 31.026295,1029.9863 31.211447,1029.843 30.6375,1029.6562 C 29.828421,1029.4618 30.321809,1030.5697 30.1875,1031.05 C 30.1875,1032.0229 30.1875,1032.9958 30.1875,1033.9688 C 30.963189,1034.1444 31.270463,1033.8517 31.09375,1033.075 C 31.187481,1032.2319 30.829135,1031.1472 31.5,1030.5 C 32.01326,1030.0954 32.812538,1030.505 32.65625,1031.1875 C 32.65625,1032.1146 32.65625,1033.0417 32.65625,1033.9688 C 33.431939,1034.1444 33.739213,1033.8517 33.5625,1033.075 C 33.652055,1032.2727 33.347529,1031.3304 33.8125,1030.625 C 34.166568,1030.2329 35.120696,1030.2233 35.125,1030.9375 C 35.125,1031.9479 35.125,1032.9583 35.125,1033.9688 C 35.965935,1034.1868 36.133442,1033.7314 36,1032.975 C 35.932646,1032.0408 36.163013,1030.9743 35.8125,1030.125 C 35.303323,1029.3396 33.879507,1029.3712 33.375,1030.1875 C 33.123183,1029.6037 32.341267,1029.4357 31.75,1029.625 z M 27.75,1030.3438 C 28.823692,1030.6059 28.799593,1032.0641 28.40625,1032.875 C 27.839171,1033.6715 26.463505,1033.2642 26.456614,1032.2735 C 26.263874,1031.3918 26.616449,1030.1251 27.75,1030.3438 z"
         id="path4196" />
      <path
         style="font-size:8px;font-style:normal;font-weight:normal;opacity:0.09090899;fill:#ffff00;fill-opacity:1;stroke:none;stroke-width:1px;stroke-linecap:butt;stroke-linejoin:miter;stroke-opacity:1;font-family:Bitstream Vera Sans"
         d="M 18.3125,1028.1562 C 18.3125,1030.0937 18.3125,1032.0313 18.3125,1033.9688 C 19.086424,1034.1323 19.439835,1033.8753 19.25,1033.075 C 19.366791,1032.5585 19.006045,1031.5644 19.45,1031.375 C 20.279167,1031.375 21.108333,1031.375 21.9375,1031.375 C 22.165468,1030.5345 21.673795,1030.4137 20.94375,1030.5312 C 20.430203,1030.4135 19.435936,1030.7766 19.25,1030.3312 C 19.37375,1029.8238 18.891441,1028.7102 19.75,1028.9375 C 20.625,1028.9375 21.5,1028.9375 22.375,1028.9375 C 22.593019,1028.0966 22.137609,1027.9291 21.38125,1028.0625 C 20.358333,1028.0625 19.335417,1028.0625 18.3125,1028.0625 L 18.3125,1028.1562 z M 24.4375,1029.5938 C 23.878848,1029.8781 24.004335,1030.0829 23.68125,1029.6562 C 22.796088,1029.3753 23.109955,1030.2933 23.0625,1030.85 C 23.0625,1031.8896 23.0625,1032.9292 23.0625,1033.9688 C 23.838189,1034.1444 24.145463,1033.8517 23.96875,1033.075 C 24.075246,1032.2379 23.685635,1031.1698 24.375,1030.5312 C 24.78843,1030.2157 25.372856,1031.0579 25.376118,1030.2779 C 25.810311,1029.7051 24.983135,1029.5289 24.53125,1029.5625 L 24.4375,1029.5938 z M 27.15625,1029.5938 C 25.734749,1029.6809 25.280579,1031.3312 25.5625,1032.5312 C 25.745439,1033.5418 26.703226,1034.2059 27.73125,1034.0625 C 28.801853,1034.0209 29.591789,1033.0865 29.539555,1032.0253 C 29.783676,1030.7773 28.836226,1029.4944 27.53125,1029.5625 C 27.40625,1029.5729 27.28125,1029.5833 27.15625,1029.5938 z M 31.75,1029.625 C 31.026295,1029.9863 31.211447,1029.843 30.6375,1029.6562 C 29.828421,1029.4618 30.321809,1030.5697 30.1875,1031.05 C 30.1875,1032.0229 30.1875,1032.9958 30.1875,1033.9688 C 30.963189,1034.1444 31.270463,1033.8517 31.09375,1033.075 C 31.187481,1032.2319 30.829135,1031.1472 31.5,1030.5 C 32.01326,1030.0954 32.812538,1030.505 32.65625,1031.1875 C 32.65625,1032.1146 32.65625,1033.0417 32.65625,1033.9688 C 33.431939,1034.1444 33.739213,1033.8517 33.5625,1033.075 C 33.652055,1032.2727 33.347529,1031.3304 33.8125,1030.625 C 34.166568,1030.2329 35.120696,1030.2233 35.125,1030.9375 C 35.125,1031.9479 35.125,1032.9583 35.125,1033.9688 C 35.965935,1034.1868 36.133442,1033.7314 36,1032.975 C 35.932646,1032.0408 36.163013,1030.9743 35.8125,1030.125 C 35.303323,1029.3396 33.879507,1029.3712 33.375,1030.1875 C 33.123183,1029.6037 32.341267,1029.4357 31.75,1029.625 z M 27.75,1030.3438 C 28.823692,1030.6059 28.799593,1032.0641 28.40625,1032.875 C 27.839171,1033.6715 26.463505,1033.2642 26.456614,1032.2735 C 26.263874,1031.3918 26.616449,1030.1251 27.75,1030.3438 z"
         id="path4200" />
      <path
         style="font-size:8px;font-style:normal;font-weight:normal;opacity:0.09090899;fill:#ffff00;fill-opacity:1;stroke:none;stroke-width:1px;stroke-linecap:butt;stroke-linejoin:miter;stroke-opacity:1;font-family:Bitstream Vera Sans"
         d="M 18.09375,1028.1562 C 18.09375,1030.1667 18.09375,1032.1771 18.09375,1034.1875 C 20.620757,1035.1916 18.532261,1031.5802 20.06875,1031.5938 C 21.649398,1032.5554 23.342394,1030.2454 21.24375,1030.3125 C 18.092945,1030.6868 19.908513,1028.3104 22.16875,1029.1562 C 23.72552,1028.2141 21.459237,1027.3111 20.18125,1027.8438 C 19.755978,1028.06 17.914845,1027.4178 18.09375,1028.1562 z M 24.46875,1029.375 C 23.668979,1029.569 22.311643,1029.0511 22.84375,1030.65 C 23.169817,1031.9468 21.880503,1034.8591 24.175,1034.1875 C 24.417484,1033.1231 23.754362,1031.5281 24.53125,1030.6875 C 25.63051,1031.5469 26.241209,1029.3927 24.9375,1029.3438 C 24.792111,1029.3724 24.590249,1029.2923 24.46875,1029.375 z M 25.46875,1030.6875 C 24.557001,1032.5679 26.33154,1035.0428 28.40625,1034.125 C 30.848845,1033.1848 29.831878,1028.6842 27.09375,1029.4062 C 26.337608,1029.4645 25.720577,1029.9894 25.46875,1030.6875 z M 31.875,1029.375 C 31.183815,1029.8638 29.605739,1028.722 29.96875,1030.35 C 30.400087,1031.5416 28.950985,1034.6136 31,1034.1875 C 31.812878,1033.7804 30.991853,1031.9395 31.40625,1031 C 31.809197,1029.9979 32.959809,1030.9069 32.4375,1031.7875 C 31.717208,1033.1797 33.178646,1035.4538 33.78125,1033.575 C 33.943211,1032.7134 33.209903,1030.2637 34.75,1030.625 C 35.193862,1031.6045 34.747768,1033.0564 34.90625,1034.1875 C 37.059915,1034.8516 35.970483,1032.2726 36.21875,1031.0312 C 36.438207,1029.4823 34.338508,1028.8133 33.375,1029.8438 C 33.064803,1029.4149 32.38594,1029.2651 31.875,1029.375 z M 27.53125,1030.5312 C 29.078542,1030.5834 28.598366,1033.8619 27,1032.9375 C 26.418649,1032.3812 26.391393,1030.5092 27.53125,1030.5312 z"
         id="path4208" />
      <path
         style="font-size:8px;font-style:normal;font-weight:normal;opacity:0.09090899;fill:#ffff00;fill-opacity:1;stroke:none;stroke-width:1px;stroke-linecap:butt;stroke-linejoin:miter;stroke-opacity:1;font-family:Bitstream Vera Sans"
         d="M 17.90625,1028.1562 C 17.710742,1030.1631 17.608579,1036.8617 19.65625,1033.375 C 19.498747,1031.2724 25.476513,1030.5807 19.84375,1030.125 C 21.038143,1027.4497 24.042312,1030.7441 22.65625,1033.75 C 24.118653,1035.9349 24.670693,1032.7332 24.4375,1031.0625 C 25.642433,1030.3903 24.695299,1033.0351 25.625,1033.5938 C 26.586634,1035.0042 29.250357,1034.6887 29.78125,1032.9688 C 30.138303,1036.3027 32.270279,1033.2367 31.5625,1031.0938 C 32.841974,1029.8216 32.060901,1033.3 32.25,1033.875 C 34.057608,1035.8838 34.028235,1032.4545 34.09375,1030.9062 C 35.948502,1030.2275 33.349753,1035.2578 35.71875,1034.375 C 36.90368,1034.0986 36.613385,1031.0853 36.0625,1029.8125 C 35.172377,1028.3489 33.649394,1029.9592 32.6875,1029.1875 C 31.244237,1029.091 29.177201,1029.1866 29.6875,1030.4688 C 29.097368,1029.0844 27.108307,1028.7694 26,1029.625 C 24.765494,1028.4758 22.013675,1030.3229 22.78125,1027.6562 C 21.387075,1027.9801 18.435267,1027.0016 17.90625,1028.1562 z M 27.53125,1030.7188 C 29.155357,1030.881 27.764568,1034.2091 26.875,1032.3438 C 26.785932,1031.7726 26.701265,1030.7218 27.53125,1030.7188 z"
         id="path4216" />
    </g>
    <text
       xml:space="preserve"
       style="font-size:8px;font-style:normal;font-weight:normal;fill:#000080;fill-opacity:1;stroke:none;stroke-width:1px;stroke-linecap:butt;stroke-linejoin:miter;stroke-opacity:1;font-family:Bitstream Vera Sans"
       x="17.563484"
       y="1034.8893"
       id="text3257"><tspan
         sodipodi:role="line"
         id="tspan3259"
         x="17.563484"
         y="1034.8893">From</tspan></text>
  </g>
</svg>
