<?xml version="1.0" encoding="UTF-8" standalone="no"?>
<!-- Created with Inkscape (http://www.inkscape.org/) -->

<svg
   xmlns:dc="http://purl.org/dc/elements/1.1/"
   xmlns:cc="http://creativecommons.org/ns#"
   xmlns:rdf="http://www.w3.org/1999/02/22-rdf-syntax-ns#"
   xmlns:svg="http://www.w3.org/2000/svg"
   xmlns="http://www.w3.org/2000/svg"
   xmlns:xlink="http://www.w3.org/1999/xlink"
   xmlns:sodipodi="http://sodipodi.sourceforge.net/DTD/sodipodi-0.dtd"
   xmlns:inkscape="http://www.inkscape.org/namespaces/inkscape"
   width="1024"
   height="768"
   id="svg2"
   version="1.1"
   inkscape:version="0.47 r22583"
   sodipodi:docname="model.svg">
  <defs
     id="defs4">
    <linearGradient
       id="linearGradient3933">
      <stop
         style="stop-color:#7b68ee;stop-opacity:1;"
         offset="0"
         id="stop3935" />
      <stop
         id="stop3945"
         offset="0.75"
         style="stop-color:#9687f2;stop-opacity:1;" />
      <stop
         style="stop-color:#d3d3d3;stop-opacity:1;"
         offset="1"
         id="stop3937" />
    </linearGradient>
    <linearGradient
       inkscape:collect="always"
       id="linearGradient3919">
      <stop
         style="stop-color:#000000;stop-opacity:1;"
         offset="0"
         id="stop3921" />
      <stop
         style="stop-color:#000000;stop-opacity:0;"
         offset="1"
         id="stop3923" />
    </linearGradient>
    <linearGradient
       id="linearGradient3622">
      <stop
         style="stop-color:#000000;stop-opacity:1;"
         offset="0"
         id="stop3624" />
      <stop
         id="stop3630"
         offset="0.30015433"
         style="stop-color:#dcdcdc;stop-opacity:1;" />
      <stop
         style="stop-color:#dcdcdc;stop-opacity:1;"
         offset="0.69867754"
         id="stop3632" />
      <stop
         style="stop-color:#000000;stop-opacity:1;"
         offset="1"
         id="stop3626" />
    </linearGradient>
    <linearGradient
       id="linearGradient3602">
      <stop
         id="stop3604"
         offset="0"
         style="stop-color:#a9a9a9;stop-opacity:1;" />
      <stop
         id="stop3606"
         offset="1"
         style="stop-color:#000000;stop-opacity:1;" />
    </linearGradient>
    <linearGradient
       id="linearGradient2822">
      <stop
         style="stop-color:#d3d3d3;stop-opacity:1;"
         offset="0"
         id="stop2824" />
      <stop
         id="stop3608"
         offset="0.94999999"
         style="stop-color:#ffffff;stop-opacity:1;" />
      <stop
         style="stop-color:#000000;stop-opacity:1;"
         offset="1"
         id="stop2826" />
    </linearGradient>
    <inkscape:perspective
       sodipodi:type="inkscape:persp3d"
       inkscape:vp_x="0 : 526.18109 : 1"
       inkscape:vp_y="0 : 1000 : 0"
       inkscape:vp_z="744.09448 : 526.18109 : 1"
       inkscape:persp3d-origin="372.04724 : 350.78739 : 1"
       id="perspective10" />
    <linearGradient
       inkscape:collect="always"
       xlink:href="#linearGradient2822"
       id="linearGradient2828"
       x1="150"
       y1="28"
       x2="150"
       y2="98"
       gradientUnits="userSpaceOnUse" />
    <linearGradient
       inkscape:collect="always"
       xlink:href="#linearGradient3622"
       id="linearGradient3628"
       x1="270"
       y1="377.36215"
       x2="275"
       y2="377.36215"
       gradientUnits="userSpaceOnUse"
       gradientTransform="translate(80,-1.2597656e-5)" />
    <linearGradient
       inkscape:collect="always"
       xlink:href="#linearGradient3622"
       id="linearGradient3636"
       gradientUnits="userSpaceOnUse"
       x1="270"
       y1="377.36215"
       x2="275"
       y2="377.36215"
       gradientTransform="translate(385,-2.0996094e-6)" />
    <linearGradient
       inkscape:collect="always"
       xlink:href="#linearGradient3622"
       id="linearGradient3644"
       gradientUnits="userSpaceOnUse"
       gradientTransform="translate(520,-2.0996094e-6)"
       x1="270"
       y1="377.36215"
       x2="275"
       y2="377.36215" />
    <linearGradient
       inkscape:collect="always"
       xlink:href="#linearGradient3622"
       id="linearGradient3656"
       gradientUnits="userSpaceOnUse"
       x1="270"
       y1="377.36215"
       x2="275"
       y2="377.36215"
       gradientTransform="translate(185,-6.2988282e-6)" />
    <linearGradient
       inkscape:collect="always"
       xlink:href="#linearGradient3622"
       id="linearGradient3664"
       gradientUnits="userSpaceOnUse"
       gradientTransform="translate(615,-2.0996094e-6)"
       x1="270"
       y1="377.36215"
       x2="275"
       y2="377.36215" />
    <linearGradient
       inkscape:collect="always"
       xlink:href="#linearGradient3622"
       id="linearGradient3672"
       gradientUnits="userSpaceOnUse"
       gradientTransform="translate(270,-6.2988282e-6)"
       x1="270"
       y1="377.36215"
       x2="275"
       y2="377.36215" />
    <filter
       height="1.2157864"
       y="-0.10789319"
       width="1.1699218"
       x="-0.084960881"
       id="filter4105"
       inkscape:collect="always">
      <feGaussianBlur
         id="feGaussianBlur4107"
         stdDeviation="0.4362862"
         inkscape:collect="always" />
    </filter>
    <filter
       id="filter4058"
       inkscape:collect="always">
      <feGaussianBlur
         id="feGaussianBlur4060"
         stdDeviation="0.054992761"
         inkscape:collect="always" />
    </filter>
    <filter
       height="1.6081731"
       y="-0.30408655"
       width="1.697302"
       x="-0.34865099"
       id="filter4020"
       inkscape:collect="always">
      <feGaussianBlur
         id="feGaussianBlur4022"
         stdDeviation="0.74473651"
         inkscape:collect="always" />
    </filter>
    <filter
       height="2.1039653"
       y="-0.55198264"
       width="1.1687362"
       x="-0.084368084"
       id="filter3782"
       inkscape:collect="always">
      <feGaussianBlur
         id="feGaussianBlur3784"
         stdDeviation="0.48257413"
         inkscape:collect="always" />
    </filter>
    <inkscape:perspective
       sodipodi:type="inkscape:persp3d"
       inkscape:vp_x="0 : 526.18109 : 1"
       inkscape:vp_y="0 : 1000 : 0"
       inkscape:vp_z="744.09448 : 526.18109 : 1"
       inkscape:persp3d-origin="372.04724 : 350.78739 : 1"
       id="perspective3592" />
    <inkscape:perspective
       sodipodi:type="inkscape:persp3d"
       inkscape:vp_x="0 : 526.18109 : 1"
       inkscape:vp_y="0 : 1000 : 0"
       inkscape:vp_z="744.09448 : 526.18109 : 1"
       inkscape:persp3d-origin="372.04724 : 350.78739 : 1"
       id="perspective3525" />
    <filter
       id="filter3253"
       inkscape:collect="always">
      <feGaussianBlur
         id="feGaussianBlur3255"
         stdDeviation="0.31164232"
         inkscape:collect="always" />
    </filter>
    <inkscape:perspective
       id="perspective10-4"
       inkscape:persp3d-origin="372.04724 : 350.78739 : 1"
       inkscape:vp_z="744.09448 : 526.18109 : 1"
       inkscape:vp_y="0 : 1000 : 0"
       inkscape:vp_x="0 : 526.18109 : 1"
       sodipodi:type="inkscape:persp3d" />
    <inkscape:perspective
       id="perspective3877"
       inkscape:persp3d-origin="0.5 : 0.33333333 : 1"
       inkscape:vp_z="1 : 0.5 : 1"
       inkscape:vp_y="0 : 1000 : 0"
       inkscape:vp_x="0 : 0.5 : 1"
       sodipodi:type="inkscape:persp3d" />
    <radialGradient
       inkscape:collect="always"
       xlink:href="#linearGradient3919"
       id="radialGradient3929"
       cx="222.35156"
       cy="305.44809"
       fx="222.35156"
       fy="305.44809"
       r="145.55469"
       gradientTransform="matrix(1,0,0,0.08518061,0,279.42983)"
       gradientUnits="userSpaceOnUse" />
    <inkscape:perspective
       id="perspective3957"
       inkscape:persp3d-origin="0.5 : 0.33333333 : 1"
       inkscape:vp_z="1 : 0.5 : 1"
       inkscape:vp_y="0 : 1000 : 0"
       inkscape:vp_x="0 : 0.5 : 1"
       sodipodi:type="inkscape:persp3d" />
  </defs>
  <sodipodi:namedview
     id="base"
     pagecolor="#ffffff"
     bordercolor="#666666"
     borderopacity="1.0"
     inkscape:pageopacity="0.0"
     inkscape:pageshadow="2"
     inkscape:zoom="0.7"
     inkscape:cx="459.64991"
     inkscape:cy="442.73182"
     inkscape:document-units="px"
     inkscape:current-layer="layer1"
     showgrid="true"
     inkscape:window-width="1366"
     inkscape:window-height="706"
     inkscape:window-x="-8"
     inkscape:window-y="-8"
     inkscape:window-maximized="1">
    <inkscape:grid
       type="xygrid"
       id="grid2816"
       empspacing="5"
       visible="true"
       enabled="true"
       snapvisiblegridlinesonly="true"
       spacingx="90px"
       spacingy="90px"
       color="#ff0000"
       opacity="0.1254902"
       empcolor="#ff0000"
       empopacity="0.25098039" />
    <inkscape:grid
       type="xygrid"
       id="grid2818"
       empspacing="5"
       visible="true"
       enabled="true"
       snapvisiblegridlinesonly="true" />
  </sodipodi:namedview>
  <metadata
     id="metadata7">
    <rdf:RDF>
      <cc:Work
         rdf:about="">
        <dc:format>image/svg+xml</dc:format>
        <dc:type
           rdf:resource="http://purl.org/dc/dcmitype/StillImage" />
        <dc:title></dc:title>
      </cc:Work>
    </rdf:RDF>
  </metadata>
  <g
     inkscape:label="Layer 1"
     inkscape:groupmode="layer"
     id="layer1"
     transform="translate(0,-284.36215)">
    <rect
       style="opacity:1;fill:url(#linearGradient2828);stroke:none;fill-opacity:1"
       id="rect2820"
       width="1020"
       height="99.999977"
       x="0"
       y="-2"
       transform="translate(0,284.36215)"
       rx="2.1094237e-15"
       ry="2.1094237e-15" />
    <rect
       ry="20"
       rx="20"
       y="297.36215"
       x="795"
       height="50"
       width="210"
       id="rect3913"
       style="fill:#000000;stroke:none;opacity:0.4" />
    <rect
       style="fill:#a9a9a9;stroke:#000000;stroke-width:0.95524865000000003;stroke-opacity:1"
       id="rect3610"
       width="730"
       height="29.999998"
       x="270"
       y="362.36215"
       rx="4.5625"
       ry="2.9999998" />
    <text
       xml:space="preserve"
       style="font-size:32px;font-style:normal;font-weight:normal;fill:#000000;fill-opacity:1;stroke:none;font-family:Verdana;-inkscape-font-specification:Verdana"
       x="290"
       y="382.36215"
       id="text3612"><tspan
         sodipodi:role="line"
         id="tspan3614"
         x="290"
         y="382.36215"
         style="font-size:18px;font-style:normal;font-variant:normal;font-weight:normal;font-stretch:normal;font-family:Verdana;-inkscape-font-specification:Verdana">Home</tspan></text>
    <rect
       style="fill:url(#linearGradient3628);fill-opacity:1;stroke:none"
       id="rect3616"
       width="5"
       height="30"
       x="350"
       y="362.36215"
       rx="2.1094237e-15" />
    <text
       id="text3618"
       y="382.36215"
       x="670"
       style="font-size:32px;font-style:normal;font-weight:normal;fill:#000000;fill-opacity:1;stroke:none;font-family:Verdana;-inkscape-font-specification:Verdana"
       xml:space="preserve"><tspan
         style="font-size:18px;font-style:normal;font-variant:normal;font-weight:normal;font-stretch:normal;font-family:Verdana;-inkscape-font-specification:Verdana"
         y="382.36215"
         x="670"
         id="tspan3620"
         sodipodi:role="line">Suggestions</tspan></text>
    <rect
       rx="2.1094237e-15"
       y="362.36215"
       x="655"
       height="30"
       width="5"
       id="rect3634"
       style="fill:url(#linearGradient3636);fill-opacity:1;stroke:none" />
    <text
       xml:space="preserve"
       style="font-size:32px;font-style:normal;font-weight:normal;fill:#000000;fill-opacity:1;stroke:none;font-family:Verdana;-inkscape-font-specification:Verdana"
       x="805"
       y="382.36215"
       id="text3638"><tspan
         sodipodi:role="line"
         id="tspan3640"
         x="805"
         y="382.36215"
         style="font-size:18px;font-style:normal;font-variant:normal;font-weight:normal;font-stretch:normal;font-family:Verdana;-inkscape-font-specification:Verdana">Sources</tspan></text>
    <rect
       style="fill:url(#linearGradient3644);fill-opacity:1;stroke:none"
       id="rect3642"
       width="5"
       height="30"
       x="790"
       y="362.36215"
       rx="2.1094237e-15" />
    <text
       id="text3646"
       y="382.36215"
       x="910"
       style="font-size:32px;font-style:normal;font-weight:normal;fill:#000000;fill-opacity:1;stroke:none;font-family:Verdana;-inkscape-font-specification:Verdana"
       xml:space="preserve"><tspan
         style="font-size:18px;font-style:normal;font-variant:normal;font-weight:normal;font-stretch:normal;font-family:Verdana;-inkscape-font-specification:Verdana"
         y="382.36215"
         x="910"
         id="tspan3648"
         sodipodi:role="line">Contact</tspan></text>
    <text
       xml:space="preserve"
       style="font-size:32px;font-style:normal;font-weight:normal;fill:#000000;fill-opacity:1;stroke:none;font-family:Verdana;-inkscape-font-specification:Verdana"
       x="365"
       y="382.36215"
       id="text3650"><tspan
         sodipodi:role="line"
         id="tspan3652"
         x="365"
         y="382.36215"
         style="font-size:18px;font-style:normal;font-variant:normal;font-weight:normal;font-stretch:normal;font-family:Verdana;-inkscape-font-specification:Verdana">Overview</tspan></text>
    <rect
       rx="2.1094237e-15"
       y="362.36215"
       x="455"
       height="30"
       width="5"
       id="rect3654"
       style="fill:url(#linearGradient3656);fill-opacity:1;stroke:none" />
    <text
       id="text3658"
       y="382.36215"
       x="555"
       style="font-size:32px;font-style:normal;font-weight:normal;fill:#000000;fill-opacity:1;stroke:none;font-family:Verdana;-inkscape-font-specification:Verdana"
       xml:space="preserve"><tspan
         style="font-size:18px;font-style:normal;font-variant:normal;font-weight:normal;font-stretch:normal;font-family:Verdana;-inkscape-font-specification:Verdana"
         y="382.36215"
         x="555"
         id="tspan3660"
         sodipodi:role="line">Road Map</tspan></text>
    <rect
       rx="2.1094237e-15"
       y="362.36215"
       x="885"
       height="30"
       width="5"
       id="rect3662"
       style="fill:url(#linearGradient3664);fill-opacity:1;stroke:none" />
    <rect
       style="fill:#dcdcdc;fill-opacity:1;stroke:none"
       id="rect3931"
       width="80.000008"
       height="29.999987"
       x="460"
       y="78"
       transform="translate(0,284.36215)" />
    <text
       id="text3666"
       y="382.36215"
       x="470"
       style="font-size:32px;font-style:normal;font-weight:normal;fill:#000000;fill-opacity:1;stroke:none;font-family:Verdana;-inkscape-font-specification:Verdana"
       xml:space="preserve"><tspan
         style="font-size:18px;font-style:normal;font-variant:normal;font-weight:normal;font-stretch:normal;font-family:Verdana;-inkscape-font-specification:Verdana"
         y="382.36215"
         x="470"
         id="tspan3668"
         sodipodi:role="line">Medias</tspan></text>
    <rect
       style="fill:url(#linearGradient3672);fill-opacity:1;stroke:none"
       id="rect3670"
       width="5"
       height="30"
       x="540"
       y="362.36215"
       rx="2.1094237e-15" />
    <g
       id="layer1-4"
       inkscape:label="Calque 1"
       transform="matrix(1.8983051,0,0,1.9655171,-11.186442,-1726.2462)">
      <g
         transform="translate(-0.1875,1)"
         id="g4220">
        <path
           id="path4230"
           d="m 18.6875,1033.5938 c 0.453216,-1.0343 -0.501326,-3.4764 1.86875,-2.5938 2.731556,-0.4178 -2.132958,0.6132 -1.68125,-0.655 -0.767263,-2.2952 1.241098,-1.8147 2.80125,-1.7825 0.588572,0.097 -3.974747,-1.008 -2.98875,0.995 0,1.3454 0,2.6908 0,4.0363 z m 5.875,-3.625 c -0.944836,0.2838 1.234739,0.1 0.09375,-0.031 l -0.09375,0.031 z m 3.25,0 c -0.111517,-0.091 -0.550555,0.01 0,0 z m 4.25,0 c 1.76011,0.2053 0.51963,2.8061 1.125,3.625 -0.27047,-1.0671 0.775819,-3.8583 -1.125,-3.625 z m 2.28125,0 c 1.953533,-0.056 0.783664,2.7275 1.28125,3.625 -0.283387,-1.124 0.81325,-4.0119 -1.28125,-3.625 z m 0,0 c -0.09446,-0.085 -0.0782,0.1377 0,0 z m -7.5,0.062 c -1.424594,0.4404 -1.207769,3.369 0.09375,3.5313 -1.330088,-0.6686 -1.17136,-3.0454 0.09375,-3.5625 l -0.1875,0.031 z M 27,1033.5938 c -0.142864,0.053 0.48408,0.1025 0,0 z m -3.5625,0 c 0.425841,-1.3208 -0.0089,-2.3496 0.0625,-3.5626 -0.142003,1.0549 -0.02359,2.4065 -0.0625,3.5626 z m 7.125,0 c 0.394361,-1.2098 0.03101,-2.4477 0.09375,-3.5613 -0.212968,0.978 -0.03529,2.4282 -0.09375,3.5613 z m -2.34375,-3.5 c 1.379588,0.719 0.743495,3.1883 0,3.4687 1.328143,-0.4356 1.297274,-3.1022 0,-3.4687 z m -0.90625,3.5937 c 0.564988,0.052 -0.292371,-0.1072 0,0 z m 0.25,0 c 0.233672,0.061 0.460037,-0.1103 0,0 z"
           style="font-size:8px;font-style:normal;font-weight:normal;opacity:0.09090899;fill:#ffff00;fill-opacity:1;stroke:none;font-family:Bitstream Vera Sans" />
        <path
           id="path4242"
           d="m 18.28125,1028.1562 c 0,1.948 0,3.8959 0,5.8438 1.226797,0.3851 1.03353,-0.6498 1,-1.525 -0.38394,-1.2535 0.606097,-1.1331 1.54,-1.0688 0.925602,0.5115 1.747528,-0.7716 0.7425,-0.9062 -0.675177,-0.179 -2.072577,0.3642 -2.2825,-0.28 -0.300459,-1.1842 0.319975,-1.4475 1.4,-1.2512 0.746449,-0.099 2.110629,0.4189 1.725,-0.8126 -0.584251,-0.2924 -1.712158,-0.041 -2.505,-0.125 -0.478264,0.088 -1.359491,-0.173 -1.62,0.125 z m 6.15625,1.4063 c -0.556508,0.6652 -0.776473,-0.3096 -1.40625,0.1875 0,1.4167 0,2.8333 0,4.25 1.22011,0.3889 0.985663,-0.6768 0.96875,-1.525 0.02544,-0.6534 -0.209747,-2.0051 0.78125,-1.975 0.585626,0.7165 1.120032,-0.9171 0.338763,-0.8957 -0.206249,-0.101 -0.460259,-0.1015 -0.682513,-0.042 z m 2.71875,0 c -1.902973,0.1368 -2.197281,2.9885 -1,4.0937 1.17546,1.0034 3.502069,0.2624 3.40035,-1.4663 0.342761,-1.5134 -0.824708,-2.9395 -2.40035,-2.6274 z m 4.59375,0.031 c -0.786455,0.451 -0.547502,0.012 -1.3725,0.031 -0.50563,0.3565 -0.0817,1.6425 -0.22125,2.365 0.205223,0.6464 -0.501936,2.2053 0.545,2.01 0.88676,0.051 0.21437,-1.4581 0.42375,-2.085 -0.129231,-0.708 0.279727,-1.8046 1.15625,-1.4775 0.689984,0.5536 0.191518,1.6536 0.34375,2.43 -0.461734,0.9063 0.623053,1.6409 0.96875,0.8675 0.123236,-1.0056 -0.26944,-2.1743 0.25,-3.0788 0.492388,-0.5839 1.509697,-0.1704 1.25,0.625 0,0.9063 0,1.8125 0,2.7188 1.268856,0.4014 0.905762,-0.8292 0.9375,-1.665 -0.05427,-0.9333 0.315689,-2.4978 -0.949166,-2.7404 -0.620603,-0.1794 -1.345852,6e-4 -1.707084,0.5304 -0.241439,-0.568 -1.053931,-0.7098 -1.625,-0.5312 z m -4.21875,0.75 c 1.344396,0.07 1.448531,2.2615 0.4375,2.8437 -1.778534,0.7458 -2.140466,-2.7906 -0.4375,-2.8437 z"
           style="font-size:8px;font-style:normal;font-weight:normal;opacity:0.09090899;fill:#ffff00;fill-opacity:1;stroke:none;font-family:Bitstream Vera Sans" />
        <path
           id="path4246"
           d="m 18.125,1028.1562 c 0,2 0,4 0,6 2.240389,0.845 0.742309,-2.0485 1.5925,-2.5937 1.140023,0.2716 3.395214,0.01 2.12625,-1.2187 -1.928163,0.8999 -3.74914,-1.528 -1.00625,-1.2188 1.503068,0.9585 2.688523,-1.4537 0.88375,-1.25 -0.955597,0.2199 -3.173151,-0.4188 -3.59625,0.2812 z m 6.28125,1.25 c -0.719356,0.2366 -2.039531,-0.3446 -1.53125,1.1838 0.400295,1.1218 -0.960481,4.0046 1,3.5662 0.739051,-0.4505 -0.01302,-2.2269 0.375,-3.1562 0.222669,-0.9121 1.376362,0.5011 1.307294,-0.6406 0.566319,-0.8116 -0.560578,-1.0546 -1.151044,-0.9532 z m 2.71875,0 c -2.799337,0.2973 -2.222012,5.4994 0.75,4.8438 2.906455,-0.3999 2.317773,-5.4767 -0.75,-4.8438 z m 4.625,0.031 c -0.743599,0.2641 -2.251296,-0.5097 -1.75,1.1525 0.400295,1.1218 -0.960481,4.0046 1,3.5662 0.774369,-0.5058 -0.09109,-2.3736 0.4375,-3.3437 0.589943,-0.758 1.423807,0.1569 1.03125,0.935 -0.292167,1.188 0.01451,3.4053 1.28125,2.1275 0.257207,-0.9608 -0.678425,-3.3187 0.875,-3.3125 0.784337,0.8245 0.07213,2.4803 0.3125,3.5937 2.081687,0.638 0.99456,-1.8929 1.25,-3.0812 0.304922,-1.5861 -1.917226,-2.2453 -2.8125,-1.2 -0.344318,-0.4721 -1.049718,-0.6322 -1.625,-0.4375 z m -4.21875,1.0625 c 1.603946,0.066 1.028711,3.4549 -0.5625,2.4375 -0.573667,-0.5935 -0.574096,-2.4498 0.5625,-2.4375 z"
           style="font-size:8px;font-style:normal;font-weight:normal;opacity:0.09090899;fill:#ffff00;fill-opacity:1;stroke:none;font-family:Bitstream Vera Sans" />
        <path
           id="path4250"
           d="m 18,1028.1562 c 0.613485,1.9491 -1.47478,6.5998 1.5625,6.125 -1.928485,-3.7686 4.197838,-1.6557 2.28125,-4.0624 -4.950096,-0.349 0.194149,-0.652 0.84375,-1.7951 0.270294,-1.1375 -4.489998,-0.8794 -4.6875,-0.2675 z m 6.375,1.125 c -2.759102,-0.5759 -1.245659,2.8761 -1.625,4.5938 1.735434,1.708 1.546864,-1.4024 1.625,-2.875 1.367881,-0.7624 0.430776,1.8443 1.25,2.5 1.204192,1.7949 4.710985,0.6922 4.25,-1.7188 -0.84706,3.5266 2.555489,2.8814 1.53125,-0.3124 -0.148596,-1.0488 1.442487,-1.0252 0.9375,0.1387 -0.963072,3.526 2.558661,3.2623 1.53125,-0.1387 -0.185625,-1.0896 1.536455,-1.0394 0.9375,0.2325 -0.79015,3.9378 2.613716,2.6086 1.5,-0.6701 0.318855,-1.7999 -2.054698,-2.1104 -3,-1.4374 -1.057973,-0.7937 -2.29672,0.083 -3.4375,-0.25 -0.09331,1.8105 0.300599,2.3917 -0.5,0.7812 -0.571371,-1.2603 -2.867037,-0.8306 -3.46875,-0.4688 -0.495818,-0.2423 -0.968407,-0.5245 -1.53125,-0.375 z m 3.15625,1.3438 c 1.610028,0.1472 0.570074,3.4888 -0.65625,1.9688 -0.266262,-0.6668 -0.257523,-1.8968 0.65625,-1.9688 z"
           style="font-size:8px;font-style:normal;font-weight:normal;opacity:0.09090899;fill:#ffff00;fill-opacity:1;stroke:none;font-family:Bitstream Vera Sans" />
        <path
           id="path4254"
           d="m 17.84375,1028.1562 c 0.686107,2.0327 -1.709151,7.1467 1.875,6.2813 -1.882519,-3.6155 4.793851,-1.8675 2.1275,-4.375 -5.46418,-0.2644 3.334502,-2.1691 0.7475,2.4875 -0.587733,3.6109 3.293446,1.5353 1.875,-1.2375 0.691312,-1.1711 0.516832,1.1679 0.75,1.6875 0.56509,1.8951 3.59534,2.071 4.5,0.3125 0.228022,2.8581 3.096462,0.1599 1.875,-1.9687 0.828866,-1.7497 0.68644,1.9203 0.59375,2.5312 1.50549,2.1223 2.372415,-1.0816 1.90625,-2.875 1.71572,-0.8855 -0.573651,3.8378 1.125,3.4375 2.257233,0.4965 1.168127,-2.9627 1.0625,-4.4375 -0.651719,-1.5077 -2.386203,-0.4795 -3.25,-0.75 -1.18302,-0.1484 -3.834312,-0.5925 -3.34375,1 -0.830639,-1.5943 -2.832443,-1.0225 -4.03125,-0.875 -1.221802,-0.7341 -3.559512,0.7185 -2.8125,-1.7812 -1.319025,0.3974 -4.743853,-0.8204 -5,0.5624 z m 9.6875,2.625 c 1.644445,0.2532 -0.03308,3.3913 -0.625,1.375 -0.05209,-0.5169 -0.06969,-1.3574 0.625,-1.375 z"
           style="font-size:8px;font-style:normal;font-weight:normal;opacity:0.09090899;fill:#ffff00;fill-opacity:1;stroke:none;font-family:Bitstream Vera Sans" />
        <path
           id="path4258"
           d="m 17.71875,1028.1562 c -1.082154,4.4971 1.35016,9.1378 2.825,3.8126 2.300097,0.4261 4.055012,5.5483 4.05,-0.6876 0.578939,-0.14 0.12356,2.8877 1.6875,3.125 1.093407,0.7143 2.819625,-0.098 3.3125,-0.5312 1.844958,2.4376 2.208148,-1.0231 2.25,-2.875 0.743272,1.0242 -0.763557,4.7556 2.3125,3.5625 -0.286069,-0.5604 0.141846,-5.5166 0.375,-2.5812 -0.398778,4.953 3.381433,1.6569 2,-1.7001 -0.830892,-2.1763 -3.266858,-0.7885 -4.875,-1.25 -2.157982,-0.5077 -1.57949,1.5012 -3.09375,0.125 -1.591347,-0.3653 -2.85381,0.2504 -4.375,-0.125 -1.511424,-0.5168 -3.996881,-3.2706 -6.46875,-0.875 z m 4.5625,1.375 c 0.159009,1.3647 -5.174965,-0.4281 0,0 z m 5.3125,1.4063 c 1.721792,1.5993 -1.588111,2.3668 -0.34375,0.062 0.12937,0.041 0.236079,-0.1513 0.34375,-0.062 z"
           style="font-size:8px;font-style:normal;font-weight:normal;opacity:0.09090899;fill:#ffff00;fill-opacity:1;stroke:none;font-family:Bitstream Vera Sans" />
      </g>
      <rect
         style="fill:#ffffff;fill-opacity:1;fill-rule:nonzero;stroke:#000000;stroke-width:1;stroke-linecap:square;stroke-linejoin:bevel;stroke-miterlimit:4;stroke-opacity:1;stroke-dasharray:none;filter:url(#filter3253)"
         id="rect3155"
         width="21.071428"
         height="20.714285"
         x="16.428572"
         y="1026.6479"
         rx="5"
         ry="5" />
      <rect
         ry="5"
         rx="5"
         y="1026.6479"
         x="16.428572"
         height="20.714285"
         width="21.071428"
         id="rect2383"
         style="fill:#ffffff;fill-opacity:1;fill-rule:nonzero;stroke:none" />
      <path
         transform="matrix(1,0,0,0.4583863,-0.0391312,564.14744)"
         d="m 34.062499,1028.4559 c 0,0.5794 -3.073045,1.0491 -6.863839,1.0491 -3.790794,0 -6.863839,-0.4697 -6.863839,-1.0491 0,-0.5794 3.073045,-1.0491 6.863839,-1.0491 3.790794,0 6.863839,0.4697 6.863839,1.0491 z"
         sodipodi:ry="1.0491072"
         sodipodi:rx="6.8638391"
         sodipodi:cy="1028.4559"
         sodipodi:cx="27.19866"
         id="path3261"
         style="opacity:0.54151623;fill:#000080;fill-opacity:1;fill-rule:nonzero;stroke:none;filter:url(#filter3782)"
         sodipodi:type="arc" />
      <path
         id="rect3391"
         d="m 16.765625,1044.2344 c 0.695448,2.0202 2.51853,3.4686 4.6875,3.4687 l 11.0625,0 c 2.153516,0 3.949635,-1.4344 4.65625,-3.4322 l -0.21875,0 c -0.820571,1.7073 -2.47751,2.8845 -4.4375,2.8845 l -11.0625,0 c -1.977034,10e-5 -3.656335,-1.1893 -4.46875,-2.921 -0.07569,0 -0.144135,0 -0.21875,0 z"
         style="fill:#cccccc;fill-opacity:1;fill-rule:nonzero;stroke:none" />
      <path
         style="fill:#000000;fill-opacity:1;fill-rule:nonzero;stroke:none"
         d="m 16.4375,1031.9848 0,-0.4984 c 0,-2.8308 2.23,-5.1265 5,-5.1266 l 11.0625,0 c 2.77,0 5,2.2958 5,5.1266 l 0,0.4984 c 0,-2.8308 -2.23,-5.0909 -5,-5.0909 l -11.0625,0 c -2.77,-10e-5 -5,2.2601 -5,5.0909 z"
         id="path3438" />
      <path
         transform="matrix(0.7898204,0.6133382,-0.756304,0.6542204,0,0)"
         id="rect4064"
         d="m 816.70385,816.91833 10.30627,0 c 1.08825,0 1.96435,0.6712 1.96435,1.50493 l 0,0.12309 c 0,0.83373 -0.8761,1.50493 -1.96435,1.50493 l -10.30627,0 c -1.08825,0 -1.96435,-0.6712 -1.96435,-1.50493 l 0,-0.12309 c 0,-0.83373 0.8761,-1.50493 1.96435,-1.50493 z"
         style="fill:#000000;fill-opacity:1;fill-rule:nonzero;stroke:none;filter:url(#filter4105)" />
      <g
         transform="translate(-0.1875,1)"
         id="g4262">
        <path
           id="path4274"
           d="m 18.59375,1033.6875 c 1.119046,-0.066 -0.479272,-2.8501 0.9625,-2.5937 1.181549,0.2104 3.197205,-0.3135 0.9,-0.2813 -1.751295,0.5367 -1.571865,-0.8573 -1.4875,-2.1563 0.789375,-0.1386 3.304986,0.3206 2.925,-0.3124 -0.984255,0.249 -2.977418,-0.5108 -3.3,0.3999 0,1.648 0,3.2959 0,4.9438 z m 5.9375,-3.8125 c -0.43818,0.2269 -0.720207,0.6971 -0.03125,0.3125 0.737256,0.2006 0.938886,-0.4699 0.03125,-0.3125 z m 2.65625,0 c -2.195898,0.3188 -1.729493,4.4236 0.625,3.9062 2.112416,-0.2806 1.913228,-4.0505 -0.28125,-3.9374 l -0.199179,0.018 -0.144571,0.013 z m 4.65625,0.031 c -0.767589,0.2985 -0.864972,0.5892 0,0.1563 1.539204,-0.1647 1.014913,1.7914 1.09375,2.725 0.103159,2.1099 0.545051,-0.4499 0.34375,-1.3187 0.105893,-1.189 0.438346,-0.7077 -0.15625,-1.1563 -0.192963,-0.3578 -0.802443,-0.63 -1.28125,-0.4063 z m 1.75,0.5 c 0.657099,-0.719 2.131054,-0.2519 1.8125,0.875 -0.116614,0.7352 0.0805,3.666 0.3125,1.6063 -0.117581,-1.0281 0.509998,-3.046 -1.125,-3.0437 -0.418628,-0.024 -0.809008,0.2278 -1,0.5624 z m -10.25,3.2813 c 0.799108,-0.3045 0.06492,-1.9841 0.4375,-2.8437 -0.196353,0.1591 -0.450086,-1.9545 -0.4375,0.2937 0,0.85 0,1.7 0,2.55 z m 7.125,0 c 0.78465,-0.2627 0.09374,-1.8561 0.40625,-2.6875 0.144834,-0.421 -0.06226,-0.1062 -0.40625,-1.0625 0,1.25 0,2.5 0,3.75 z M 31.0625,1030.5 c 0.05982,-8e-4 0.02497,-0.16 0,0 z m -3.53125,-0.4688 c 2.057471,-0.05 1.846101,4.0129 -0.28125,3.5313 -1.641952,-0.2467 -1.516857,-3.637 0.28125,-3.5313 z m -3.59375,0.5313 c 0.230175,-0.1119 -0.08525,-0.1416 0,0 z"
           style="font-size:8px;font-style:normal;font-weight:normal;opacity:0.09090899;fill:#ffff00;fill-opacity:1;stroke:none;font-family:Bitstream Vera Sans" />
        <path
           id="path4278"
           d="m 18.3125,1028.1562 c 0,1.9376 0,3.875 0,5.8126 0.773924,0.1635 1.127335,-0.094 0.9375,-0.8938 0.116791,-0.5165 -0.243955,-1.5106 0.2,-1.7 0.829167,0 1.658333,0 2.4875,0 0.227968,-0.8405 -0.263705,-0.9613 -0.99375,-0.8438 -0.513547,-0.1177 -1.507814,0.2454 -1.69375,-0.2 0.12375,-0.5074 -0.358559,-1.621 0.5,-1.3937 0.875,0 1.75,0 2.625,0 0.218019,-0.8409 -0.237391,-1.0084 -0.99375,-0.875 -1.022917,0 -2.045833,0 -3.06875,0 l 0,0.094 z m 6.125,1.4376 c -0.558652,0.2843 -0.433165,0.4891 -0.75625,0.062 -0.885162,-0.2809 -0.571295,0.6371 -0.61875,1.1938 0,1.0396 0,2.0792 0,3.1188 0.775689,0.1756 1.082963,-0.1171 0.90625,-0.8938 0.106496,-0.8371 -0.283116,-1.9052 0.40625,-2.5438 0.41343,-0.3155 0.997856,0.5267 1.001118,-0.2533 0.434193,-0.5728 -0.392983,-0.749 -0.844868,-0.7154 l -0.09375,0.031 z m 2.71875,0 c -1.421501,0.087 -1.875671,1.7374 -1.59375,2.9374 0.182939,1.0106 1.140726,1.6747 2.16875,1.5313 1.070603,-0.042 1.860539,-0.976 1.808305,-2.0372 0.244121,-1.248 -0.703329,-2.5309 -2.008305,-2.4628 -0.125,0.01 -0.25,0.021 -0.375,0.031 z m 4.59375,0.031 c -0.723705,0.3613 -0.538553,0.218 -1.1125,0.031 -0.809079,-0.1944 -0.315691,0.9135 -0.45,1.3938 0,0.9729 0,1.9458 0,2.9188 0.775689,0.1756 1.082963,-0.1171 0.90625,-0.8938 0.09373,-0.8431 -0.264615,-1.9278 0.40625,-2.575 0.51326,-0.4046 1.312538,0.01 1.15625,0.6875 0,0.9271 0,1.8542 0,2.7813 0.775689,0.1756 1.082963,-0.1171 0.90625,-0.8938 0.08955,-0.8023 -0.214971,-1.7446 0.25,-2.45 0.354068,-0.3921 1.308196,-0.4017 1.3125,0.3125 0,1.0104 0,2.0208 0,3.0313 0.840935,0.218 1.008442,-0.2374 0.875,-0.9938 -0.06735,-0.9342 0.163013,-2.0007 -0.1875,-2.85 -0.509177,-0.7854 -1.932993,-0.7538 -2.4375,0.062 -0.251817,-0.5838 -1.033733,-0.7518 -1.625,-0.5625 z m -4,0.7188 c 1.073692,0.2621 1.049593,1.7203 0.65625,2.5312 -0.567079,0.7965 -1.942745,0.3892 -1.949636,-0.6015 -0.19274,-0.8817 0.159835,-2.1484 1.293386,-1.9297 z"
           style="font-size:8px;font-style:normal;font-weight:normal;opacity:0.09090899;fill:#ffff00;fill-opacity:1;stroke:none;font-family:Bitstream Vera Sans" />
        <path
           id="path4286"
           d="m 18,1028.1562 c 0.324969,1.8522 -0.619196,4.9734 0.40625,6.125 2.313543,0.1698 0.126218,-4.1612 3.8375,-2.5937 1.356867,-2.6855 -4.167901,-0.58 -2.28125,-2.4375 2.336938,1.2542 4.227239,-1.9779 1.11875,-1.5 -0.748549,0.3051 -3.072825,-0.5892 -3.08125,0.4062 z m 6.4375,1.125 c -2.355052,-0.5935 -1.638369,1.6381 -1.6875,3.2688 -0.78552,2.924 2.795721,1.8021 1.53125,-0.675 -0.512647,-1.0971 1.177628,-1.5716 0.90625,-0.3438 -0.563236,2.4479 2.842152,3.9249 4.25,1.9063 1.027753,-2.7551 -0.255816,0.098 0.84375,0.8437 2.5096,0.7188 -0.01579,-3.211 1.75,-3.625 0.937795,0.5705 -0.03336,2.6168 0.3125,3.625 2.664902,0.8385 0.894245,-2.2838 1.78125,-3.5 1.504937,-0.5476 0.316931,2.3496 0.6875,3.0938 1.518492,1.7648 1.861644,-1.4421 1.5,-2.875 0.23871,-1.735 -2.042212,-2.1042 -3,-1.375 -1.082587,-0.8233 -2.262956,0.049 -3.4375,-0.2812 -0.06348,1.3483 0.230398,2.6722 -0.375,0.9374 -0.765051,-1.208 -2.707226,-1.4113 -3.6875,-0.3437 0.293762,-0.4218 -1.041736,-0.8099 -1.375,-0.6563 z m 3.09375,1.3438 c 1.630865,0.079 0.631281,3.545 -0.6875,2 -0.1585,-0.6672 -0.316278,-2.0127 0.6875,-2 z"
           style="font-size:8px;font-style:normal;font-weight:normal;opacity:0.09090899;fill:#ffff00;fill-opacity:1;stroke:none;font-family:Bitstream Vera Sans" />
        <path
           id="path4294"
           d="m 17.59375,1028.1562 c -1.673192,3.3544 1.811998,10.3209 2.375,4.1188 2.319596,-1.4217 4.200705,6.2441 4.71875,0 0.112109,-2.6645 -0.125798,2.1586 1.53125,2.225 1.616459,1.0572 3.382372,-1.1126 4.0625,0.1875 3.091452,1.4499 0.868743,-7.4924 1.65625,-1.1 0.613815,3.0934 3.701077,-0.09 2.375,-2.4625 -0.896875,1.6934 1.054836,5.6649 2.40625,2.75 1.052345,-2.7044 -0.739191,-6.0345 -3.53125,-4.8125 -1.432812,-0.596 -3.709771,0.2376 -4.0625,0.25 -1.788466,-0.8529 -3.522876,-0.017 -5.34375,-0.375 -0.06754,-1.9133 -5.364241,-2.638 -6.1875,-0.7813 z m 4.6875,1.5 c -1.570191,0.5646 -3.781442,-0.2651 0,0 z m 5.25,1.3438 c 1.360575,0.7428 -0.725968,2.7826 -0.375,0.5 -0.02759,-0.2921 0.135257,-0.4669 0.375,-0.5 z"
           style="font-size:8px;font-style:normal;font-weight:normal;opacity:0.09090899;fill:#ffff00;fill-opacity:1;stroke:none;font-family:Bitstream Vera Sans" />
        <path
           id="path4298"
           d="m 17.40625,1028.1562 c -2.062367,11.3616 4.471136,1.2044 4.75,6.7188 3.184947,1.1919 1.943295,-2.797 3.75,-0.3438 2.604114,0.9448 4.245537,-0.4451 6.84375,0.3438 4.172245,1.4502 5.226846,-2.4501 3.625,-5.5 -2.110081,-1.3825 -4.593972,-0.2039 -7.09375,-0.625 -0.417471,0.2071 -2.87299,-0.094 -3.875,0.031 -3.053038,0.058 -2.841087,-2.8036 -7,-1.625 l -1,0 0,1 z m 10.0625,3.0938 c 0.975061,0.8922 -0.664605,1.7998 -0.0625,0.031 l 0.03125,-0.031 0.03125,0 z"
           style="font-size:8px;font-style:normal;font-weight:normal;opacity:0.09090899;fill:#ffff00;fill-opacity:1;stroke:none;font-family:Bitstream Vera Sans" />
      </g>
      <g
         transform="translate(-0.1875,1)"
         id="g4302">
        <path
           id="path4310"
           d="m 18.71875,1033.5625 c 0.05994,-1.5505 -0.178722,-3.3996 2.2375,-2.5937 1.307738,-0.2726 -3.572533,0.8309 -2.1125,-1.5438 -0.968394,-1.8461 4.200663,-0.4617 2.525,-0.9562 -2.53945,-0.6562 -3.05654,0.7101 -2.65,2.9999 0,0.698 0,1.3959 0,2.0938 z m 13.6875,-3.5937 c -0.192469,-0.119 0.928884,0.5822 0.65625,1.2187 -0.0104,2.9832 0.07423,2.1471 0.15625,-0.2813 -0.08977,-0.4233 -0.379926,-0.9734 -0.8125,-0.9374 z m -7.9375,0.031 c -0.08126,0.2301 1.114702,-0.01 0.09375,-0.031 -0.02538,0.015 -0.119362,-0.033 -0.09375,0.031 z m 10.40625,0 c 0.544372,0.083 0.876148,1.4229 0.65625,2.1812 -0.02179,2.9357 0.180942,-0.6131 0,-1.7124 -0.05851,-0.2808 -0.408247,-0.4919 -0.65625,-0.4688 z m -8.09375,0.094 c -1.264393,0.5906 -1.227443,3.0421 0.125,3.4687 -1.380344,-0.5585 -0.949742,-3.1761 -0.125,-3.4687 z m 3.8125,3.4687 c 0.241487,-0.9793 0.0019,-3.097 0,-3.2 0,1.0667 0,2.1333 0,3.2 z m -2.03125,-3.25 c 0.01587,-0.093 -0.258808,-0.1552 0,0 z m 0,0 c 0.955286,0.7642 0.245009,2.8474 0.03125,3.0313 0.752147,-0.6259 0.809317,-2.4582 -0.03125,-3.0313 z m -5.09375,1.1875 c -0.147466,4.1811 0.28152,0.6394 0,0 z m 4.71875,2.0625 c 0.267891,0.1459 0.2338,-0.4594 0,0 z M 27,1033.625 c 0.136802,0.01 -0.215511,-0.08 0,0 z"
           style="font-size:8px;font-style:normal;font-weight:normal;opacity:0.09090899;fill:#ffff00;fill-opacity:1;stroke:none;font-family:Bitstream Vera Sans" />
        <path
           id="path4314"
           d="m 18.5625,1033.7188 c 0.91757,-0.028 0.219674,-1.672 0.4375,-2.4 0.331468,-0.4852 1.591269,-0.042 2.25625,-0.1938 1.282041,-0.3916 -0.986911,-0.3901 -1.51875,-0.3438 -1.233165,0.3853 -0.581223,-1.1146 -0.7375,-1.8062 0.161818,-0.6861 1.60837,-0.087 2.25625,-0.2875 1.672178,0.057 0.337863,-0.6535 -0.63125,-0.375 -0.753619,0.1839 -2.411225,-0.5362 -2.0625,0.75 0,1.5521 0,3.1042 0,4.6563 z m 5.96875,-3.875 c -0.50695,-0.077 -0.876849,1.4748 -0.90625,0.7937 -0.01197,-1.593 -0.538022,0 -0.3125,0.7687 0.220048,0.6863 -0.47285,2.2854 0.40625,2.3126 0.164219,-1.1124 -0.417488,-2.6291 0.53125,-3.4063 0.345899,-0.093 1.408488,-0.086 0.71875,-0.4375 -0.0359,-0.1037 -0.348152,-0.079 -0.4375,-0.031 z m 2.65625,0 c -1.771532,0.1689 -1.909526,3.0039 -0.5625,3.8124 0.996258,0.4386 2.655035,-0.02 2.639926,-1.368 0.318407,-1.4119 -0.566023,-2.7084 -2.077426,-2.4444 z m 4.65625,0.031 c -0.674713,-0.2043 -1.161175,1.634 -1.0625,0.4375 -0.403736,-1.2287 -0.383415,1.0234 -0.34375,1.5437 -0.101082,0.5757 0.0208,2.7518 0.40625,1.4126 0.07378,-1.0732 -0.383905,-2.891 1.03125,-3.175 1.265077,-0.124 1.05215,1.4515 1.03125,2.2937 -0.307913,1.2362 0.614899,1.8588 0.40625,0.2813 -0.05902,-0.9748 -0.13651,-2.5444 1.15625,-2.575 1.175046,0 0.899106,1.4267 0.90625,2.2374 -0.29882,1.0327 0.489001,2.0954 0.375,0.4876 -0.142831,-0.92 0.342675,-2.168 -0.40625,-2.85 -0.827783,-0.3784 -1.611637,-0.055 -2.03125,0.6874 -0.152751,-0.706 -0.817073,-1.005 -1.46875,-0.7812 z m -4.3125,0.1875 c 1.943872,0.034 1.822012,3.7208 -0.180092,3.4814 -1.681443,-0.2181 -1.599368,-3.4845 0.180092,-3.4814 z"
           style="font-size:8px;font-style:normal;font-weight:normal;opacity:0.09090899;fill:#ffff00;fill-opacity:1;stroke:none;font-family:Bitstream Vera Sans" />
        <path
           id="path4318"
           d="m 18.3125,1028.1562 c 0,1.9376 0,3.875 0,5.8126 0.773924,0.1635 1.127335,-0.094 0.9375,-0.8938 0.116791,-0.5165 -0.243955,-1.5106 0.2,-1.7 0.829167,0 1.658333,0 2.4875,0 0.227968,-0.8405 -0.263705,-0.9613 -0.99375,-0.8438 -0.513547,-0.1177 -1.507814,0.2454 -1.69375,-0.2 0.12375,-0.5074 -0.358559,-1.621 0.5,-1.3937 0.875,0 1.75,0 2.625,0 0.218019,-0.8409 -0.237391,-1.0084 -0.99375,-0.875 -1.022917,0 -2.045833,0 -3.06875,0 l 0,0.094 z m 6.125,1.4376 c -0.558652,0.2843 -0.433165,0.4891 -0.75625,0.062 -0.885162,-0.2809 -0.571295,0.6371 -0.61875,1.1938 0,1.0396 0,2.0792 0,3.1188 0.775689,0.1756 1.082963,-0.1171 0.90625,-0.8938 0.106496,-0.8371 -0.283116,-1.9052 0.40625,-2.5438 0.41343,-0.3155 0.997856,0.5267 1.001118,-0.2533 0.434193,-0.5728 -0.392983,-0.749 -0.844868,-0.7154 l -0.09375,0.031 z m 2.71875,0 c -1.421501,0.087 -1.875671,1.7374 -1.59375,2.9374 0.182939,1.0106 1.140726,1.6747 2.16875,1.5313 1.070603,-0.042 1.860539,-0.976 1.808305,-2.0372 0.244121,-1.248 -0.703329,-2.5309 -2.008305,-2.4628 -0.125,0.01 -0.25,0.021 -0.375,0.031 z m 4.59375,0.031 c -0.723705,0.3613 -0.538553,0.218 -1.1125,0.031 -0.809079,-0.1944 -0.315691,0.9135 -0.45,1.3938 0,0.9729 0,1.9458 0,2.9188 0.775689,0.1756 1.082963,-0.1171 0.90625,-0.8938 0.09373,-0.8431 -0.264615,-1.9278 0.40625,-2.575 0.51326,-0.4046 1.312538,0.01 1.15625,0.6875 0,0.9271 0,1.8542 0,2.7813 0.775689,0.1756 1.082963,-0.1171 0.90625,-0.8938 0.08955,-0.8023 -0.214971,-1.7446 0.25,-2.45 0.354068,-0.3921 1.308196,-0.4017 1.3125,0.3125 0,1.0104 0,2.0208 0,3.0313 0.840935,0.218 1.008442,-0.2374 0.875,-0.9938 -0.06735,-0.9342 0.163013,-2.0007 -0.1875,-2.85 -0.509177,-0.7854 -1.932993,-0.7538 -2.4375,0.062 -0.251817,-0.5838 -1.033733,-0.7518 -1.625,-0.5625 z m -4,0.7188 c 1.073692,0.2621 1.049593,1.7203 0.65625,2.5312 -0.567079,0.7965 -1.942745,0.3892 -1.949636,-0.6015 -0.19274,-0.8817 0.159835,-2.1484 1.293386,-1.9297 z"
           style="font-size:8px;font-style:normal;font-weight:normal;opacity:0.09090899;fill:#ffff00;fill-opacity:1;stroke:none;font-family:Bitstream Vera Sans" />
        <path
           id="path4322"
           d="m 18.25,1028.1562 c 0,1.9584 0,3.9167 0,5.875 1.146336,0.3401 1.199257,-0.4132 1.0625,-1.3562 -0.362431,-1.2749 0.423987,-1.401 1.5,-1.2375 0.87465,0.3501 1.649522,-0.3224 1.0375,-0.9687 -0.796098,-0.1 -1.991442,0.1997 -2.5375,-0.1501 -0.330517,-1.2701 0.359967,-1.5192 1.5,-1.3187 0.749244,-0.074 2.036679,0.3908 1.625,-0.8438 -0.457043,-0.3971 -1.678993,-0.029 -2.406251,-0.1562 -0.489843,0.123 -1.574543,-0.2349 -1.781249,0.1562 z m 6.1875,1.375 c -0.619252,0.5483 -0.38227,-0.1019 -1.25625,0.063 -0.456371,0.3561 -0.03748,1.5875 -0.18125,2.2562 0.204683,0.6245 -0.412085,2.0704 0.30625,2.1812 1.221778,0.3781 0.565395,-1.1221 0.725,-1.8062 -0.06587,-0.6958 -0.04067,-1.9896 0.96875,-1.6312 0.639404,0.3738 0.752988,-1.2568 -0.04552,-1.0558 -0.131177,-0.072 -0.37095,-0.057 -0.516978,-0.01 z m 2.71875,0 c -2.406308,0.2295 -2.260606,4.548 0.15625,4.5938 1.392402,0.1751 2.440981,-1.0441 2.3125,-2.375 0.111216,-1.3661 -1.107593,-2.4826 -2.46875,-2.2188 z m 4.59375,0.031 c -0.654572,0.2972 -0.478802,0.2545 -0.9625,0.031 -1.163478,-0.3406 -0.486746,1.159 -0.6625,1.8062 0,0.8771 0,1.7542 0,2.6312 1.141181,0.3454 1.150498,-0.4411 1.03125,-1.3562 0.04965,-0.765 -0.278994,-2.2598 0.875,-2.2688 0.931328,0.073 0.436041,1.3669 0.5625,1.9813 0.06539,0.7742 -0.385594,2.0648 0.875,1.6437 0.397124,-0.457 0.02934,-1.6789 0.15625,-2.4062 -0.259932,-0.8618 0.85356,-1.6865 1.375,-0.9062 0.152401,1.0828 0.01662,2.2123 0.0625,3.3124 1.135651,0.3503 1.101569,-0.4692 1,-1.3562 -0.06115,-1.0978 0.387373,-2.9291 -1.125,-3.1438 -0.606191,-0.1538 -1.208177,0.1274 -1.5625,0.5626 -0.303492,-0.5274 -1.018741,-0.7399 -1.625,-0.5313 z m -4.21875,0.8125 c 1.279669,0.019 1.214468,1.7757 0.78125,2.5312 -0.628625,0.735 -1.925581,0.1801 -1.8125,-0.75 -0.07541,-0.7695 0.03703,-1.7896 1.03125,-1.7812 z"
           style="font-size:8px;font-style:normal;font-weight:normal;opacity:0.09090899;fill:#ffff00;fill-opacity:1;stroke:none;font-family:Bitstream Vera Sans" />
        <path
           id="path4326"
           d="m 18.09375,1028.1562 c 0,2.0105 0,4.0209 0,6.0313 2.527007,1.0041 0.438511,-2.6073 1.975,-2.5937 1.580648,0.9616 3.273644,-1.3484 1.175,-1.2813 -3.150806,0.3743 -1.335237,-2.0021 0.925,-1.1563 1.55677,-0.9421 -0.709513,-1.8451 -1.9875,-1.3124 -0.425272,0.2162 -2.266405,-0.426 -2.0875,0.3124 z m 6.375,1.2188 c -0.799771,0.194 -2.157107,-0.3239 -1.625,1.275 0.326067,1.2969 -0.963247,4.2091 1.33125,3.5375 0.242484,-1.0644 -0.420638,-2.6594 0.35625,-3.5 1.09926,0.8594 1.709959,-1.2948 0.40625,-1.3437 -0.145389,0.029 -0.347251,-0.052 -0.46875,0.031 z m 1,1.3125 c -0.911749,1.8804 0.86279,4.3553 2.9375,3.4375 2.442595,-0.9402 1.425628,-5.4408 -1.3125,-4.7188 -0.756142,0.058 -1.373173,0.5832 -1.625,1.2813 z m 6.40625,-1.3125 c -0.691185,0.4888 -2.269261,-0.653 -1.90625,0.975 0.431337,1.1916 -1.017765,4.2636 1.03125,3.8375 0.812878,-0.4071 -0.0081,-2.248 0.40625,-3.1875 0.402947,-1.0021 1.553559,-0.093 1.03125,0.7875 -0.720292,1.3922 0.741146,3.6663 1.34375,1.7875 0.161961,-0.8616 -0.571347,-3.3113 0.96875,-2.95 0.443862,0.9795 -0.0022,2.4314 0.15625,3.5625 2.153665,0.6641 1.064233,-1.9149 1.3125,-3.1563 0.219457,-1.5489 -1.880242,-2.2179 -2.84375,-1.1874 -0.310197,-0.4289 -0.98906,-0.5787 -1.5,-0.4688 z m -4.34375,1.1562 c 1.547292,0.052 1.067116,3.3307 -0.53125,2.4063 -0.581351,-0.5563 -0.608607,-2.4283 0.53125,-2.4063 z"
           style="font-size:8px;font-style:normal;font-weight:normal;opacity:0.09090899;fill:#ffff00;fill-opacity:1;stroke:none;font-family:Bitstream Vera Sans" />
        <path
           id="path4330"
           d="m 17.96875,1028.1562 c 0.27348,1.8751 -0.988685,7.6414 1.625,5.7188 -1.43578,-2.8925 5.978633,-2.6392 0.9,-3.6875 -3.426781,-0.8988 5.928869,-1.2751 0.8875,-2.4687 -0.940259,0.2687 -3.224956,-0.5507 -3.4125,0.4374 z m 6.40625,1.0938 c -2.783363,-0.596 -1.287865,2.8788 -1.65625,4.625 1.775675,1.8101 1.592992,-1.4097 1.71875,-2.9062 1.288312,-0.5462 0.31516,2.003 1.21875,2.5937 1.016253,1.5036 3.964655,0.9407 4.1875,-0.9687 -0.07227,3.5557 2.482749,0.8816 1.65625,-1.4688 0.653524,-1.2449 1.298095,0.6224 0.8125,1.4125 -0.08546,3.6514 2.490423,0.9221 1.65625,-1.475 1.373109,-1.3772 0.685925,2.1135 0.8125,2.8125 1.860966,1.8727 1.770573,-2.0043 1.46875,-3.5938 -0.302179,-1.3167 -2.185126,-1.1821 -2.90625,-0.7187 -1.078291,-0.7711 -2.326832,0.044 -3.5,-0.25 0.155112,2.0684 0.0028,1.2949 -0.90625,0.2813 -1.237147,-1.0599 -2.800854,0.4902 -3.75,-0.2813 -0.238496,-0.1355 -0.568538,-0.1228 -0.8125,-0.062 z m 3.15625,1.4062 c 1.555159,0.1506 0.562896,3.3863 -0.625,1.9376 -0.240345,-0.638 -0.288478,-1.8874 0.625,-1.9376 z"
           style="font-size:8px;font-style:normal;font-weight:normal;opacity:0.09090899;fill:#ffff00;fill-opacity:1;stroke:none;font-family:Bitstream Vera Sans" />
        <path
           id="path4334"
           d="m 17.8125,1028.1562 c -1.111084,2.986 1.339024,9.9147 1.9375,3.9188 6.764088,-0.1407 -2.473102,-3.071 1.8,-2.6375 1.633638,0.1558 1.140048,8.9242 2.91875,3.2375 -0.561346,-0.996 0.612916,-2.6077 0.53125,-0.8625 -0.398698,2.6184 3.398871,3.8095 4.6875,1.625 1.126595,2.9603 2.330812,-0.4776 2.03125,-2.4375 1.573222,-0.559 -1.019671,4.7863 1.75,3.4688 1.446443,0.4592 -0.176552,-4.2383 1.15625,-3.4063 -1.206236,4.3858 3.143273,4.2476 1.875,-0.094 0.235843,-2.111 -2.268496,-1.9744 -3.40625,-1.7188 -1.141638,-0.2212 -3.775826,-0.574 -3.4375,0.9062 -1.259105,-1.9906 -3.538352,-0.3607 -5.1875,-1.0937 -2.302628,0.1076 -2.222578,-2.689 -5.7875,-1.5 -0.420439,0.067 -1.310417,-0.3354 -0.86875,0.5937 z m 9.71875,2.6563 c 1.598835,0.3116 -0.145679,3.3209 -0.59375,1.25 -0.07674,-0.4709 -0.008,-1.2159 0.59375,-1.25 z"
           style="font-size:8px;font-style:normal;font-weight:normal;opacity:0.09090899;fill:#ffff00;fill-opacity:1;stroke:none;font-family:Bitstream Vera Sans" />
        <path
           id="path4338"
           d="m 17.65625,1028.1562 c -0.642037,6.6429 0.840465,7.0757 4.1875,3.875 0.156112,3.1797 3.677291,3.4883 2.84375,-0.875 -0.358763,2.0633 2.14727,4.8664 4.5,3.0626 1.457116,0.8957 3.28241,0.058 2.625,-3.0938 -0.0391,0.8026 0.518016,5.959 2.40625,2.75 -0.318475,-1.5026 0.386987,-4.8159 0.25,-1.0937 0.440411,4.591 3.483775,-0.132 1.96875,-2.8438 -1.144659,-1.7839 -3.260965,-0.5044 -4.90625,-0.9375 -2.068421,-0.1198 -1.67688,1.0707 -3.46875,-0.062 -1.831059,0.2227 -3.41609,0.1062 -5.03125,-0.094 1.227433,-2.2524 -5.527551,-1.8723 -5.375,-0.6876 z m 4.625,1.4376 c -0.629012,0.9976 -4.53817,-0.3646 0,0 z m 5.25,1.375 c 1.420212,0.478 -0.46894,2.9197 -0.46875,0.7812 0.06039,-0.3164 0.03582,-0.7823 0.46875,-0.7812 z"
           style="font-size:8px;font-style:normal;font-weight:normal;opacity:0.09090899;fill:#ffff00;fill-opacity:1;stroke:none;font-family:Bitstream Vera Sans" />
      </g>
      <rect
         rx="1.9643483"
         ry="1.5049291"
         style="fill:#000000;fill-opacity:1;fill-rule:nonzero;stroke:none"
         id="rect3888"
         width="14.234966"
         height="3.1329474"
         x="814.7395"
         y="816.91833"
         transform="matrix(0.7898204,0.6133382,-0.756304,0.6542204,0,0)" />
      <path
         id="rect4109"
         d="m 24.033229,1035.9018 c -0.01109,0.4699 0.255841,0.9983 0.78125,1.4063 l 8.15625,6.3124 c 0.859521,0.6675 2.056944,0.7642 2.6875,0.2188 l 0.09375,-0.094 c 0.306626,-0.2652 0.40645,-0.616 0.34375,-1 -0.01464,0.2868 -0.138542,0.5455 -0.375,0.75 l -0.09375,0.094 c -0.630552,0.5454 -1.827986,0.4488 -2.6875,-0.2188 l -8.15625,-6.3437 c -0.429761,-0.3337 -0.675296,-0.7293 -0.75,-1.125 z"
         style="fill:#ffffff;fill-opacity:1;fill-rule:nonzero;stroke:none" />
      <path
         transform="matrix(1.2056651,0,0,0.9323309,-5.2065311,69.821852)"
         d="m 26.604892,1034.7509 c 0,1.6231 -1.147612,2.9389 -2.563262,2.9389 -1.415651,0 -2.563262,-1.3158 -2.563262,-2.9389 0,-1.6232 1.147611,-2.939 2.563262,-2.939 1.41565,0 2.563262,1.3158 2.563262,2.939 z"
         sodipodi:ry="2.9389126"
         sodipodi:rx="2.563262"
         sodipodi:cy="1034.7509"
         sodipodi:cx="24.04163"
         id="path3894"
         style="fill:#ffff00;fill-opacity:1;fill-rule:nonzero;stroke:none;filter:url(#filter4020)"
         sodipodi:type="arc" />
      <path
         sodipodi:type="arc"
         style="opacity:0.98194945;fill:#ffff00;fill-opacity:1;fill-rule:nonzero;stroke:none;filter:url(#filter4058)"
         id="path4024"
         sodipodi:cx="24.04163"
         sodipodi:cy="1034.7509"
         sodipodi:rx="2.563262"
         sodipodi:ry="2.9389126"
         d="m 26.604892,1034.7509 c 0,1.6231 -1.147612,2.9389 -2.563262,2.9389 -1.415651,0 -2.563262,-1.3158 -2.563262,-2.9389 0,-1.6232 1.147611,-2.939 2.563262,-2.939 1.41565,0 2.563262,1.3158 2.563262,2.939 z"
         transform="matrix(0.8306963,0,0,0.6194345,4.7382233,394.44875)" />
      <path
         transform="matrix(0.8777692,-0.4790838,0.4790838,0.8777692,-477.11444,130.99762)"
         id="path4115"
         d="m 5.21875,1034.6875 c 0.1565666,0.8732 1.0288246,1.5312 2.09375,1.5313 1.0641853,0 1.9050342,-0.659 2.0625,-1.5313 -0.1986562,0.8293 -1.0340523,1.4375 -2.0625,1.4375 -1.0284484,0 -1.8950937,-0.6082 -2.09375,-1.4375 z"
         style="opacity:0.98194945;fill:#ff0000;fill-opacity:1;fill-rule:nonzero;stroke:none" />
      <g
         transform="translate(-0.1875,1)"
         id="g4178">
        <path
           id="path4184"
           d="m 18.71875,1033.5625 c 0.05994,-1.5505 -0.178722,-3.3996 2.2375,-2.5937 1.307737,-0.2726 -3.572533,0.8309 -2.1125,-1.5438 -0.968394,-1.8461 4.200663,-0.4617 2.525,-0.9562 -2.53945,-0.6562 -3.05654,0.7101 -2.65,3 0,0.6979 0,1.3958 0,2.0937 z m 13.6875,-3.5937 c -0.192469,-0.119 0.928884,0.5822 0.65625,1.2187 -0.0104,2.9832 0.07423,2.1471 0.15625,-0.2813 -0.08977,-0.4233 -0.379926,-0.9734 -0.8125,-0.9374 z m -7.9375,0.031 c -0.08126,0.2301 1.114702,-0.01 0.09375,-0.031 -0.02538,0.015 -0.119362,-0.033 -0.09375,0.031 z m 10.40625,0 c 0.544372,0.083 0.876148,1.4229 0.65625,2.1813 -0.02179,2.9356 0.180942,-0.6132 0,-1.7125 -0.05851,-0.2808 -0.408247,-0.4919 -0.65625,-0.4688 z m -8.09375,0.094 c -1.264393,0.5906 -1.227443,3.0421 0.125,3.4687 -1.380344,-0.5585 -0.949742,-3.1761 -0.125,-3.4687 z m 3.8125,3.4687 c 0.241487,-0.9793 0.0019,-3.097 0,-3.2 0,1.0667 0,2.1333 0,3.2 z m -2.03125,-3.25 c 0.01587,-0.093 -0.258808,-0.1552 0,0 z m 0,0 c 0.955286,0.7642 0.245009,2.8474 0.03125,3.0313 0.752147,-0.6259 0.809317,-2.4582 -0.03125,-3.0313 z m -5.09375,1.1875 c -0.147466,4.1811 0.281521,0.6394 0,0 z m 4.71875,2.0625 c 0.267891,0.1459 0.2338,-0.4594 0,0 z M 27,1033.625 c 0.136802,0.01 -0.215511,-0.08 0,0 z"
           style="font-size:8px;font-style:normal;font-weight:normal;opacity:0.09090899;fill:#ffff00;fill-opacity:1;stroke:none;font-family:Bitstream Vera Sans" />
        <path
           id="path4188"
           d="m 18.59375,1033.6875 c 1.119046,-0.066 -0.479272,-2.8501 0.9625,-2.5937 1.181549,0.2104 3.197205,-0.3135 0.9,-0.2813 -1.751295,0.5367 -1.571865,-0.8573 -1.4875,-2.1563 0.789375,-0.1386 3.304986,0.3206 2.925,-0.3124 -0.984254,0.249 -2.977419,-0.5108 -3.3,0.4 0,1.6479 0,3.2958 0,4.9437 z m 5.9375,-3.8125 c -0.43818,0.2269 -0.720207,0.6971 -0.03125,0.3125 0.737256,0.2006 0.938886,-0.4699 0.03125,-0.3125 z m 2.65625,0 c -2.195898,0.3188 -1.729493,4.4236 0.625,3.9062 2.112416,-0.2806 1.913228,-4.0505 -0.28125,-3.9374 l -0.199179,0.018 -0.144571,0.013 z m 4.65625,0.031 c -0.767589,0.2985 -0.864972,0.5892 0,0.1563 1.539204,-0.1647 1.014913,1.7914 1.09375,2.725 0.103159,2.1099 0.545051,-0.4499 0.34375,-1.3187 0.105893,-1.189 0.438346,-0.7077 -0.15625,-1.1563 -0.192963,-0.3578 -0.802443,-0.63 -1.28125,-0.4063 z m 1.75,0.5 c 0.657099,-0.719 2.131054,-0.2519 1.8125,0.875 -0.116614,0.7352 0.0805,3.666 0.3125,1.6063 -0.117581,-1.0281 0.509998,-3.046 -1.125,-3.0437 -0.418628,-0.024 -0.809008,0.2278 -1,0.5624 z m -10.25,3.2813 c 0.799108,-0.3045 0.06492,-1.9841 0.4375,-2.8437 -0.196353,0.1591 -0.450086,-1.9545 -0.4375,0.2937 0,0.85 0,1.7 0,2.55 z m 7.125,0 c 0.78465,-0.2627 0.09374,-1.8561 0.40625,-2.6875 0.144834,-0.421 -0.06226,-0.1062 -0.40625,-1.0625 0,1.25 0,2.5 0,3.75 z M 31.0625,1030.5 c 0.05982,-8e-4 0.02497,-0.16 0,0 z m -3.53125,-0.4688 c 2.057471,-0.05 1.846101,4.0129 -0.28125,3.5313 -1.641952,-0.2467 -1.516857,-3.637 0.28125,-3.5313 z m -3.59375,0.5313 c 0.230175,-0.1119 -0.08525,-0.1416 0,0 z"
           style="font-size:8px;font-style:normal;font-weight:normal;opacity:0.09090899;fill:#ffff00;fill-opacity:1;stroke:none;font-family:Bitstream Vera Sans" />
        <path
           id="path4192"
           d="m 18.5,1033.7812 c 0.891023,0.2702 0.46944,-0.7722 0.5625,-1.3 0.07823,-0.5509 -0.312243,-1.5705 0.59375,-1.2937 0.697917,0 1.395833,0 2.09375,0 0.210289,-0.8332 -0.910748,-0.3351 -1.4,-0.4687 -0.550171,-0.077 -1.564437,0.3102 -1.2875,-0.5938 0.123023,-0.4999 -0.355878,-1.6017 0.49375,-1.375 0.877083,0 1.754167,0 2.63125,0 0.225648,-0.859 -0.890842,-0.3758 -1.4,-0.5 -0.7625,0 -1.525,0 -2.2875,0 0,1.8437 0,3.6875 0,5.5312 z m 6,-4 c -0.477406,0.055 -0.640458,0.8867 -0.8125,0.8688 0.323489,-0.6943 -0.568694,-1.2477 -0.4375,-0.3062 0,1.1458 0,2.2916 0,3.4374 0.874086,0.2637 0.424574,-0.7962 0.53125,-1.3 0.0341,-0.7495 -0.197067,-2.0016 0.75,-2.2 0.467921,0.2378 1.070546,-0.1945 0.46875,-0.4687 -0.139452,-0.093 -0.350712,-0.086 -0.5,-0.031 z m 2.6875,0 c -1.040615,0.077 -1.598556,1.1731 -1.5,2.1313 0.0088,0.9909 0.543959,1.8941 1.566808,1.9509 0.861586,0.09 1.759543,-0.3091 1.964442,-1.1134 0.379119,-1.0546 0.142352,-2.6258 -1.125,-2.9062 -0.288427,-0.1359 -0.600997,-0.095 -0.90625,-0.063 z m 4.625,0.031 c -0.464861,0.084 -0.772305,0.4643 -0.96875,0.875 0.325723,-0.7051 -0.579196,-1.3098 -0.46875,-0.3437 0,1.1458 0,2.2916 0,3.4374 0.874086,0.2637 0.424574,-0.7962 0.53125,-1.3 -0.0122,-0.8474 -0.136141,-2.1946 0.96875,-2.325 0.800454,-0.1479 1.08104,0.6734 0.96875,1.3313 0,0.7646 0,1.5292 0,2.2937 0.874086,0.2637 0.424574,-0.7962 0.53125,-1.3 0.01696,-0.7959 -0.188284,-1.9766 0.751118,-2.2628 0.663158,-0.2786 1.345139,0.2888 1.186382,0.9879 0,0.8583 0,1.7166 0,2.5749 0.858982,0.2257 0.375825,-0.8908 0.5,-1.4 -0.09327,-0.8196 0.278355,-1.9099 -0.46875,-2.475 -0.784941,-0.3605 -1.636795,-0.059 -2.03125,0.6563 -0.156041,-0.6519 -0.887776,-0.9884 -1.5,-0.75 z m -4.03125,0.3437 c 1.199721,0.2229 1.24585,1.8534 0.8125,2.7813 -0.415378,0.7 -1.638031,0.7677 -2.09375,0.031 -0.473952,-0.8696 -0.433915,-2.5553 0.75,-2.8126 0.179146,-0.024 0.352377,-0.041 0.53125,0 z"
           style="font-size:8px;font-style:normal;font-weight:normal;opacity:0.09090899;fill:#ffff00;fill-opacity:1;stroke:none;font-family:Bitstream Vera Sans" />
        <path
           id="path4196"
           d="m 18.3125,1028.1562 c 0,1.9376 0,3.875 0,5.8126 0.773924,0.1635 1.127335,-0.094 0.9375,-0.8938 0.116791,-0.5165 -0.243955,-1.5106 0.2,-1.7 0.829167,0 1.658333,0 2.4875,0 0.227968,-0.8405 -0.263705,-0.9613 -0.99375,-0.8438 -0.513547,-0.1177 -1.507814,0.2454 -1.69375,-0.2 0.12375,-0.5074 -0.358559,-1.621 0.5,-1.3937 0.875,0 1.75,0 2.625,0 0.218019,-0.8409 -0.237391,-1.0084 -0.99375,-0.875 -1.022917,0 -2.045833,0 -3.06875,0 l 0,0.094 z m 6.125,1.4376 c -0.558652,0.2843 -0.433165,0.4891 -0.75625,0.062 -0.885162,-0.2809 -0.571295,0.6371 -0.61875,1.1938 0,1.0396 0,2.0792 0,3.1188 0.775689,0.1756 1.082963,-0.1171 0.90625,-0.8938 0.106496,-0.8371 -0.283116,-1.9052 0.40625,-2.5438 0.41343,-0.3155 0.997856,0.5267 1.001118,-0.2533 0.434193,-0.5728 -0.392983,-0.749 -0.844868,-0.7154 l -0.09375,0.031 z m 2.71875,0 c -1.421501,0.087 -1.875671,1.7374 -1.59375,2.9374 0.182939,1.0106 1.140726,1.6747 2.16875,1.5313 1.070603,-0.042 1.860539,-0.976 1.808305,-2.0372 0.244121,-1.248 -0.703329,-2.5309 -2.008305,-2.4628 -0.125,0.01 -0.25,0.021 -0.375,0.031 z m 4.59375,0.031 c -0.723705,0.3613 -0.538553,0.218 -1.1125,0.031 -0.809079,-0.1944 -0.315691,0.9135 -0.45,1.3938 0,0.9729 0,1.9458 0,2.9188 0.775689,0.1756 1.082963,-0.1171 0.90625,-0.8938 0.09373,-0.8431 -0.264615,-1.9278 0.40625,-2.575 0.51326,-0.4046 1.312538,0.01 1.15625,0.6875 0,0.9271 0,1.8542 0,2.7813 0.775689,0.1756 1.082963,-0.1171 0.90625,-0.8938 0.08955,-0.8023 -0.214971,-1.7446 0.25,-2.45 0.354068,-0.3921 1.308196,-0.4017 1.3125,0.3125 0,1.0104 0,2.0208 0,3.0313 0.840935,0.218 1.008442,-0.2374 0.875,-0.9938 -0.06735,-0.9342 0.163013,-2.0007 -0.1875,-2.85 -0.509177,-0.7854 -1.932993,-0.7538 -2.4375,0.062 -0.251817,-0.5838 -1.033733,-0.7518 -1.625,-0.5625 z m -4,0.7188 c 1.073692,0.2621 1.049593,1.7203 0.65625,2.5312 -0.567079,0.7965 -1.942745,0.3892 -1.949636,-0.6015 -0.19274,-0.8817 0.159835,-2.1484 1.293386,-1.9297 z"
           style="font-size:8px;font-style:normal;font-weight:normal;opacity:0.09090899;fill:#ffff00;fill-opacity:1;stroke:none;font-family:Bitstream Vera Sans" />
        <path
           id="path4200"
           d="m 18.3125,1028.1562 c 0,1.9375 0,3.8751 0,5.8126 0.773924,0.1635 1.127335,-0.094 0.9375,-0.8938 0.116791,-0.5165 -0.243955,-1.5106 0.2,-1.7 0.829167,0 1.658333,0 2.4875,0 0.227968,-0.8405 -0.263705,-0.9613 -0.99375,-0.8438 -0.513547,-0.1177 -1.507814,0.2454 -1.69375,-0.2 0.12375,-0.5074 -0.358559,-1.621 0.5,-1.3937 0.875,0 1.75,0 2.625,0 0.218019,-0.8409 -0.237391,-1.0084 -0.99375,-0.875 -1.022917,0 -2.045833,0 -3.06875,0 l 0,0.094 z m 6.125,1.4376 c -0.558652,0.2843 -0.433165,0.4891 -0.75625,0.062 -0.885162,-0.2809 -0.571295,0.6371 -0.61875,1.1938 0,1.0396 0,2.0792 0,3.1188 0.775689,0.1756 1.082963,-0.1171 0.90625,-0.8938 0.106496,-0.8371 -0.283115,-1.9052 0.40625,-2.5438 0.41343,-0.3155 0.997856,0.5267 1.001118,-0.2533 0.434193,-0.5728 -0.392983,-0.749 -0.844868,-0.7154 l -0.09375,0.031 z m 2.71875,0 c -1.421501,0.087 -1.875671,1.7374 -1.59375,2.9374 0.182939,1.0106 1.140726,1.6747 2.16875,1.5313 1.070603,-0.042 1.860539,-0.976 1.808305,-2.0372 0.244121,-1.248 -0.703329,-2.5309 -2.008305,-2.4628 -0.125,0.01 -0.25,0.021 -0.375,0.031 z m 4.59375,0.031 c -0.723705,0.3613 -0.538553,0.218 -1.1125,0.031 -0.809079,-0.1944 -0.315691,0.9135 -0.45,1.3938 0,0.9729 0,1.9458 0,2.9188 0.775689,0.1756 1.082963,-0.1171 0.90625,-0.8938 0.09373,-0.8431 -0.264615,-1.9278 0.40625,-2.575 0.51326,-0.4046 1.312538,0.01 1.15625,0.6875 0,0.9271 0,1.8542 0,2.7813 0.775689,0.1756 1.082963,-0.1171 0.90625,-0.8938 0.08955,-0.8023 -0.214971,-1.7446 0.25,-2.45 0.354068,-0.3921 1.308196,-0.4017 1.3125,0.3125 0,1.0104 0,2.0208 0,3.0313 0.840935,0.218 1.008442,-0.2374 0.875,-0.9938 -0.06735,-0.9342 0.163013,-2.0007 -0.1875,-2.85 -0.509177,-0.7854 -1.932993,-0.7538 -2.4375,0.062 -0.251817,-0.5838 -1.033733,-0.7518 -1.625,-0.5625 z m -4,0.7188 c 1.073692,0.2621 1.049593,1.7203 0.65625,2.5312 -0.567079,0.7965 -1.942745,0.3892 -1.949636,-0.6015 -0.19274,-0.8817 0.159835,-2.1484 1.293386,-1.9297 z"
           style="font-size:8px;font-style:normal;font-weight:normal;opacity:0.09090899;fill:#ffff00;fill-opacity:1;stroke:none;font-family:Bitstream Vera Sans" />
        <path
           id="path4208"
           d="m 18.09375,1028.1562 c 0,2.0105 0,4.0209 0,6.0313 2.527007,1.0041 0.438511,-2.6073 1.975,-2.5937 1.580648,0.9616 3.273644,-1.3484 1.175,-1.2813 -3.150805,0.3743 -1.335237,-2.0021 0.925,-1.1563 1.55677,-0.9421 -0.709513,-1.8451 -1.9875,-1.3124 -0.425272,0.2162 -2.266405,-0.426 -2.0875,0.3124 z m 6.375,1.2188 c -0.799771,0.194 -2.157107,-0.3239 -1.625,1.275 0.326067,1.2968 -0.963247,4.2091 1.33125,3.5375 0.242484,-1.0644 -0.420638,-2.6594 0.35625,-3.5 1.09926,0.8594 1.709959,-1.2948 0.40625,-1.3437 -0.145389,0.029 -0.347251,-0.052 -0.46875,0.031 z m 1,1.3125 c -0.911749,1.8804 0.86279,4.3553 2.9375,3.4375 2.442595,-0.9402 1.425628,-5.4408 -1.3125,-4.7188 -0.756142,0.058 -1.373173,0.5832 -1.625,1.2813 z m 6.40625,-1.3125 c -0.691185,0.4888 -2.269261,-0.653 -1.90625,0.975 0.431337,1.1916 -1.017765,4.2636 1.03125,3.8375 0.812878,-0.4071 -0.0081,-2.248 0.40625,-3.1875 0.402947,-1.0021 1.553559,-0.093 1.03125,0.7875 -0.720292,1.3922 0.741146,3.6663 1.34375,1.7875 0.161961,-0.8616 -0.571347,-3.3113 0.96875,-2.95 0.443862,0.9795 -0.0022,2.4314 0.15625,3.5625 2.153665,0.6641 1.064233,-1.9149 1.3125,-3.1563 0.219457,-1.5489 -1.880242,-2.2179 -2.84375,-1.1874 -0.310197,-0.4289 -0.98906,-0.5787 -1.5,-0.4688 z m -4.34375,1.1562 c 1.547292,0.052 1.067116,3.3307 -0.53125,2.4063 -0.581351,-0.5563 -0.608607,-2.4283 0.53125,-2.4063 z"
           style="font-size:8px;font-style:normal;font-weight:normal;opacity:0.09090899;fill:#ffff00;fill-opacity:1;stroke:none;font-family:Bitstream Vera Sans" />
        <path
           id="path4216"
           d="m 17.90625,1028.1562 c -0.195508,2.0069 -0.297671,8.7055 1.75,5.2188 -0.157503,-2.1026 5.820263,-2.7943 0.1875,-3.25 1.194393,-2.6753 4.198562,0.6191 2.8125,3.625 1.462403,2.1849 2.014443,-1.0168 1.78125,-2.6875 1.204933,-0.6722 0.257799,1.9726 1.1875,2.5313 0.961634,1.4104 3.625357,1.0949 4.15625,-0.625 0.357053,3.3339 2.489029,0.2679 1.78125,-1.875 1.279474,-1.2722 0.498401,2.2062 0.6875,2.7812 1.807608,2.0088 1.778235,-1.4205 1.84375,-2.9688 1.854752,-0.6787 -0.743997,4.3516 1.625,3.4688 1.18493,-0.2764 0.894635,-3.2897 0.34375,-4.5625 -0.890123,-1.4636 -2.413106,0.1467 -3.375,-0.625 -1.443263,-0.097 -3.510299,-9e-4 -3,1.2813 -0.590132,-1.3844 -2.579193,-1.6994 -3.6875,-0.8438 -1.234506,-1.1492 -3.986325,0.6979 -3.21875,-1.9688 -1.394175,0.3239 -4.345983,-0.6546 -4.875,0.5 z m 9.625,2.5626 c 1.624107,0.1622 0.233318,3.4903 -0.65625,1.625 -0.08907,-0.5712 -0.173735,-1.622 0.65625,-1.625 z"
           style="font-size:8px;font-style:normal;font-weight:normal;opacity:0.09090899;fill:#ffff00;fill-opacity:1;stroke:none;font-family:Bitstream Vera Sans" />
      </g>
      <text
         id="text3257"
         y="1034.8893"
         x="17.563484"
         style="font-size:8px;font-style:normal;font-weight:normal;fill:#000080;fill-opacity:1;stroke:none;font-family:Bitstream Vera Sans"
         xml:space="preserve"><tspan
           y="1034.8893"
           x="17.563484"
           id="tspan3259"
           sodipodi:role="line">From</tspan></text>
    </g>
    <text
       id="text3915"
       y="318.36215"
       x="76"
       style="font-size:32px;font-style:normal;font-weight:normal;fill:#000000;fill-opacity:1;stroke:none;font-family:Bitstream Vera Sans;opacity:0.4"
       xml:space="preserve"><tspan
         style="font-family:Verdana;-inkscape-font-specification:Verdana"
         y="318.36215"
         x="76"
         id="tspan3917"
         sodipodi:role="line">Gather the sender</tspan></text>
    <text
       xml:space="preserve"
       style="font-size:32px;font-style:normal;font-weight:normal;fill:#696969;fill-opacity:1;stroke:#000000;font-family:Bitstream Vera Sans;stroke-opacity:1"
       x="75"
       y="317.36215"
       id="text3859"><tspan
         sodipodi:role="line"
         id="tspan3861"
         x="75"
         y="317.36215"
         style="font-family:Verdana;-inkscape-font-specification:Verdana;fill-opacity:1;fill:#696969;stroke:#000000;stroke-opacity:1">Gather the sender</tspan></text>
    <rect
       style="fill:#b0c4de;stroke:none"
       id="rect3863"
       width="210"
       height="50"
       x="790"
       y="292.36215"
       rx="20"
       ry="20" />
    <text
       xml:space="preserve"
       style="font-size:32px;font-style:normal;font-weight:normal;fill:#000000;fill-opacity:1;stroke:none;font-family:Bitstream Vera Sans"
       x="850"
       y="322.36215"
       id="text3865"><tspan
         sodipodi:role="line"
         id="tspan3867"
         x="850"
         y="322.36215"
         style="font-size:24px;font-family:Verdana;-inkscape-font-specification:Verdana">Download</tspan></text>
    <image
       y="295.36215"
       x="800"
       id="image3879"
       height="42"
       width="42"
       xlink:href="file:///D:/Programming/Projects/0005-GatherTheSender/svn/trunk/resources/download_manager.png" />
    <rect
       style="opacity:0.8;fill:#d3d3d3;fill-opacity:1;stroke:none"
       id="rect3905"
       width="800"
       height="40"
       x="90"
       y="718"
       transform="translate(0,284.36215)"
       rx="20"
       ry="20" />
    <rect
       style="opacity:0.8;fill:#d3d3d3;fill-opacity:1;stroke:none"
       id="rect3907"
       width="350"
       height="270"
       x="650"
       y="402.36215"
       rx="20"
       ry="20.769232" />
    <rect
       style="opacity:0.8;fill:#1e90ff;fill-opacity:1;stroke:none"
       id="rect3909"
       width="350"
       height="70"
       x="650"
       y="692.36212"
       rx="20"
       ry="20" />
    <rect
       style="opacity:0.8;fill:#d3d3d3;fill-opacity:1;stroke:none"
       id="rect3911"
       width="610"
       height="570"
       x="20"
       y="402.36215"
       rx="20"
       ry="43.018867" />
    <rect
       style="fill:#00008b;fill-opacity:1;stroke:none"
       id="rect3941"
       width="320"
       height="240"
       x="665"
       y="417.36215"
       rx="2.1094237e-15"
       ry="2.1094237e-15" />
    <rect
       style="fill:#696969;fill-opacity:1;stroke:none"
       id="rect3947"
       width="174.99997"
       height="39.999943"
       x="445"
       y="412.36215"
       rx="12.499999"
       ry="20" />
    <image
       y="400.36215"
       x="948"
       id="image3959"
       height="42"
       width="42"
       xlink:href="file:///D:/Programming/Projects/0005-GatherTheSender/svn/trunk/resources/medias.png" />
  </g>
</svg>
